<svg id="Group_3920" data-name="Group 3920" xmlns="http://www.w3.org/2000/svg" width="32" height="32" viewBox="0 0 32 32">
  <circle id="Ellipse_56" data-name="Ellipse 56" cx="16" cy="16" r="16" fill="#ff6782"/>
  <g id="Group_3929" data-name="Group 3929" transform="translate(-6645.563 -1643.016)">
    <path id="Path_4254" data-name="Path 4254" d="M6655.827,1667.01a3.6,3.6,0,0,1-.587-.241,1.4,1.4,0,0,1-.694-1.239q-.008-3.006,0-6.012a.5.5,0,1,1,1,0q0,2.936,0,5.871c0,.434.187.622.617.622h2.392v-.2q0-2.622,0-5.245a1.5,1.5,0,0,1,1.57-1.573h2.9a1.494,1.494,0,0,1,1.546,1.551q0,2.63,0,5.26v.2c.061,0,.111.007.162.008h2.254a.521.521,0,0,0,.592-.584q0-4.2,0-8.392a.276.276,0,0,0-.114-.236q-2.756-2.292-5.51-4.588a.519.519,0,0,0-.793,0q-3.332,2.775-6.665,5.549a.992.992,0,0,1-.4.218c-.268.057-.428-.125-.554-.335v-.282a1.858,1.858,0,0,1,.246-.314q3.382-2.826,6.77-5.643a1.5,1.5,0,0,1,2,0q1.529,1.27,3.055,2.544c.061.051.123.1.206.168v-.836a.5.5,0,1,1,1-.006c0,.517,0,1.033,0,1.55a.314.314,0,0,0,.1.207c.273.241.558.471.838.7.545.454,1.093.905,1.634,1.365a.492.492,0,0,1,.069.711.5.5,0,0,1-.714.058l-.172-.131v.214q0,3.773,0,7.546a1.491,1.491,0,0,1-.928,1.4c-.114.047-.236.076-.354.113Zm7.732-1.008c0-.038.006-.058.006-.079q0-2.692,0-5.385a.511.511,0,0,0-.552-.544q-1.433,0-2.865,0a.522.522,0,0,0-.593.6q0,2.622,0,5.244V1666Z" fill="#fff"/>
    <path id="Path_4255" data-name="Path 4255" d="M6821.77,1926.4a.5.5,0,1,1,.5-.49A.5.5,0,0,1,6821.77,1926.4Z" transform="translate(-160.715 -262.902)" fill="#fff"/>
  </g>
</svg>
