<svg xmlns="http://www.w3.org/2000/svg" width="17.159" height="19.91" viewBox="0 0 17.159 19.91">
  <path id="Path_4260" data-name="Path 4260" d="M7314.6,2816.5c-.771,0-1.514,0-2.256,0a1.466,1.466,0,0,1-1.46-1.47q0-7.122,0-14.245a1.428,1.428,0,0,1,1.2-1.438,1.579,1.579,0,0,1,.313-.023q5.691,0,11.381,0a1.46,1.46,0,0,1,1.523,1.506c.007.647,0,1.294,0,1.941v.285c.406,0,.785.016,1.162,0a1.516,1.516,0,0,1,1.572,1.561c-.018,4.352-.008,8.7-.009,13.056a1.453,1.453,0,0,1-1.536,1.561q-5.169.007-10.338,0a1.473,1.473,0,0,1-1.556-1.574C7314.594,2817.287,7314.6,2816.915,7314.6,2816.5Zm9.7-6.25v-.3q0-4.489,0-8.977c0-.51-.131-.64-.647-.64h-11.112c-.527,0-.664.134-.664.654v13.83c0,.514.152.666.666.666h6.539v-.321c0-1.116-.006-2.232,0-3.348a1.491,1.491,0,0,1,1.577-1.561q1.674,0,3.348,0Zm-8.693,6.231v1.06c0,.558.131.692.681.692h10.067c.546,0,.673-.126.673-.667q0-6.428,0-12.857a2.224,2.224,0,0,0-.006-.242.4.4,0,0,0-.384-.4c-.433-.019-.868-.005-1.33-.005v.3c0,2,0,3.994,0,5.992a1.772,1.772,0,0,1-.55,1.344q-2.115,2.088-4.206,4.2a1.867,1.867,0,0,1-1.409.585c-1.075-.013-2.151,0-3.226,0Zm4.471-1.566,3.589-3.658c-.98,0-2,0-3.015,0-.407,0-.572.165-.573.575,0,.688,0,1.375,0,2.062Z" transform="translate(-7310.876 -2799.325)"/>
</svg>
