<svg xmlns="http://www.w3.org/2000/svg" width="12.004" height="12.001" viewBox="0 0 12.004 12.001">
  <g id="Group_3974" data-name="Group 3974" transform="translate(-357.998 -151.001)">
    <path id="Path_4256" data-name="Path 4256" d="M6667.9,2317.837a1.552,1.552,0,0,1-.09.274,2.193,2.193,0,0,1-.291.446c-.274.3-.57.578-.856.864a.172.172,0,0,1-.032.027l-2.553-2.552c.315-.326.631-.667.964-.989a1.09,1.09,0,0,1,.646-.273.969.969,0,0,0,.1-.023h.141a.365.365,0,0,0,.065.019,1.316,1.316,0,0,1,.85.418c.212.219.438.422.642.649a2.715,2.715,0,0,1,.317.47,1.589,1.589,0,0,1,.1.3Z" transform="translate(-6297.902 -2164.609)"/>
    <path id="Path_4257" data-name="Path 4257" d="M6527.066,2350.909c.882.881,1.733,1.734,2.6,2.595-.024.026-.054.058-.083.087q-3.226,3.223-6.451,6.445a.611.611,0,0,1-.267.154c-.942.241-1.887.475-2.833.709a.263.263,0,0,1-.336-.333c.238-.964.477-1.928.723-2.891a.48.48,0,0,1,.13-.2l5.329-5.332,1.126-1.127A.616.616,0,0,0,6527.066,2350.909Z" transform="translate(-6161.684 -2197.908)"/>
  </g>
</svg>
