<svg xmlns="http://www.w3.org/2000/svg" xmlns:xlink="http://www.w3.org/1999/xlink" width="16" height="16" viewBox="0 0 16 16">
  <defs>
    <clipPath id="clip-path">
      <rect id="Rectangle_33" data-name="Rectangle 33" width="16" height="16" transform="translate(349.823 60.823)" fill="#fff"/>
    </clipPath>
  </defs>
  <g id="Mask_Group_8" data-name="Mask Group 8" transform="translate(-349.823 -60.823)" opacity="0.3" clip-path="url(#clip-path)">
    <g id="Layer_2" data-name="Layer 2" transform="translate(350.006 61)">
      <g id="Layer_1" data-name="Layer 1" transform="translate(0 0)">
        <path id="Path_4150" data-name="Path 4150" d="M7.815,15.555a1.584,1.584,0,0,1,1.663-1.57c.427,0,.855.017,1.282,0a1.618,1.618,0,0,1,1.766,1.574h2.282a.786.786,0,1,1,0,1.569c-.69,0-1.379,0-2.069,0h-.206c-.023.133-.036.259-.066.381a1.523,1.523,0,0,1-1.389,1.162c-.572.025-1.147.03-1.72.007a1.555,1.555,0,0,1-1.541-1.551H.871a.79.79,0,0,1-.849-.689.77.77,0,0,1,.778-.88q2,0,3.991,0H7.819Zm3.116.014H9.4V17.1h1.528Z" transform="translate(-0.004 -3.043)"/>
        <path id="Path_4151" data-name="Path 4151" d="M9.365,3.135H.815A.751.751,0,0,1,.1,2.718a.742.742,0,0,1,.041-.8.791.791,0,0,1,.7-.354H9.368c.015-.11.022-.211.044-.31A1.529,1.529,0,0,1,10.853.02c.56-.025,1.125-.025,1.684,0a1.53,1.53,0,0,1,1.52,1.362c.009.054.017.108.03.19.248,0,.5,0,.756,0a.781.781,0,0,1,.779.9.771.771,0,0,1-.734.666c-.134,0-.268,0-.4,0h-.391c-.023.131-.038.256-.068.378A1.534,1.534,0,0,1,12.591,4.7a14.373,14.373,0,0,1-1.882-.027,1.484,1.484,0,0,1-1.318-1.4C9.385,3.231,9.375,3.191,9.365,3.135Zm1.591-.009h1.538V1.592H10.957Z" transform="translate(-0.001 0)"/>
        <path id="Path_4152" data-name="Path 4152" d="M7.829,10.132a1.6,1.6,0,0,1-.6,1.223,1.487,1.487,0,0,1-.946.337H4.708a1.555,1.555,0,0,1-1.575-1.467.767.767,0,0,0-.014-.091H2.905c-.69,0-1.379.005-2.069,0a.773.773,0,0,1-.817-.9A.738.738,0,0,1,.7,8.581c.426-.023.854-.012,1.281-.014H3.108c.035-.168.055-.325.1-.474A1.544,1.544,0,0,1,4.681,7.009c.476,0,.954.023,1.428-.006A1.6,1.6,0,0,1,7.833,8.568h6.872a1.408,1.408,0,0,1,.38.038.78.78,0,0,1-.15,1.52,2.691,2.691,0,0,1-.274.01H7.829Zm-1.591-.018V8.584H4.719v1.53Z" transform="translate(-0.003 -1.524)"/>
      </g>
    </g>
  </g>
</svg>
