<svg xmlns="http://www.w3.org/2000/svg" width="22" height="22" viewBox="0 0 22 22">
  <g id="Group_3876" data-name="Group 3876" transform="translate(42 127) rotate(180)">
    <g id="Rectangle_62" data-name="Rectangle 62" transform="translate(20 105)" fill="#fff" stroke="#ed7184" stroke-width="1">
      <rect width="22" height="22" rx="11" stroke="none"/>
      <rect x="0.5" y="0.5" width="21" height="21" rx="10.5" fill="none"/>
    </g>
    <path id="Path_4129" data-name="Path 4129" d="M2265.271-740.834h.133q3.8,0,7.6,0a.82.82,0,0,0,.236-.028.421.421,0,0,0,.281-.468.422.422,0,0,0-.361-.388,1.392,1.392,0,0,0-.2-.01h-7.7l-.03-.044a.456.456,0,0,0,.1-.057c.45-.445.9-.892,1.347-1.338a.442.442,0,0,0,.143-.452.446.446,0,0,0-.76-.2q-.878.87-1.75,1.746c-.153.152-.306.3-.457.457a.439.439,0,0,0,0,.657q1.1,1.1,2.206,2.2a.418.418,0,0,0,.5.106.469.469,0,0,0,.274-.452.466.466,0,0,0-.163-.3l-1.33-1.325a.7.7,0,0,0-.092-.067Z" transform="translate(-710.281 -2152.615) rotate(90)"/>
  </g>
</svg>
