<svg xmlns="http://www.w3.org/2000/svg" width="45.637" height="48.885" viewBox="0 0 45.637 48.885">
  <g id="Group_4067" data-name="Group 4067" transform="translate(-5063.608 474.894)">
    <path id="Path_4319" data-name="Path 4319" d="M5070-474.894a5.614,5.614,0,0,1,2.571,1.26,4.755,4.755,0,0,1,1.622,3.431c.025.842-.005,1.685.016,2.527a.719.719,0,0,0,.207.48,1.8,1.8,0,0,1,.617,1.44c.008,2.067.015,4.133,0,6.2a1.638,1.638,0,0,1-1.8,1.766q-3.91.013-7.821,0a1.635,1.635,0,0,1-1.8-1.848c0-2.019.005-4.038,0-6.057a1.848,1.848,0,0,1,.635-1.522.752.752,0,0,0,.167-.5c.024-.858-.014-1.719.042-2.574a4.865,4.865,0,0,1,3.913-4.506,1.073,1.073,0,0,0,.208-.093Zm2.506,7.3a27.171,27.171,0,0,0-.02-2.873,2.944,2.944,0,0,0-2.235-2.624,3.073,3.073,0,0,0-3.336.919c-1.262,1.35-.723,3.013-.849,4.578Zm.816,4.054v-2.343h-8.057v2.343Zm-8.054,1.727v2.361h8.069v-2.361Z"/>
    <path id="Path_4320" data-name="Path 4320" d="M5387.567-474.894a2.049,2.049,0,0,1,1.195,2.152c-.039,2.688-.009,5.377-.019,8.065a.549.549,0,0,0,.4.633,3.22,3.22,0,0,1,2,3.567A3.227,3.227,0,0,1,5388-457.8a3.242,3.242,0,0,1-3.271-2.638,3.233,3.233,0,0,1,1.968-3.588.552.552,0,0,0,.41-.626c-.016-1.622-.007-3.245-.007-4.868v-.486c-.51,0-.981.006-1.453,0-.62-.011-.964-.306-.965-.81s.356-.812.962-.821c.46-.007.92,0,1.418,0v-1.625c-.708,0-1.419-.013-2.129,0-.469.011-.867-.083-1.032-.574-.171-.508.14-.8.516-1.057Zm-1.249,13.836a1.618,1.618,0,0,0,1.584,1.633,1.643,1.643,0,0,0,1.647-1.63,1.652,1.652,0,0,0-1.621-1.615A1.633,1.633,0,0,0,5386.318-461.058Z" transform="translate(-281.95)"/>
    <path id="Path_4321" data-name="Path 4321" d="M5141.856-356.847c-.925-3.537-.125-6.508,2.939-8.569a6.767,6.767,0,0,1,7.938-.051c3.107,2.046,3.977,5.03,3.032,8.617.869,0,1.726,0,2.582,0a2.5,2.5,0,0,1,2.627,1.9,15.169,15.169,0,0,1,.852,6.044,10.376,10.376,0,0,1-1.645,4.72c-.555.927-1.11,1.853-1.678,2.772a5.74,5.74,0,0,0-.62,4.632c.232.906.5,1.8.724,2.711a2.512,2.512,0,0,1-2.536,3.281q-5.106.016-10.213,0a2.547,2.547,0,0,1-2.53-1.682,2.264,2.264,0,0,0-2.389-1.573,13.223,13.223,0,0,1-2.232-.105,3.482,3.482,0,0,1-2.043-1.047,2.071,2.071,0,0,1-.524-2.318.9.9,0,0,0-.12-.973,1.722,1.722,0,0,1-.431-1.5.51.51,0,0,0-.154-.361,1.471,1.471,0,0,1-.373-1.537.483.483,0,0,0-.125-.387,6.458,6.458,0,0,0-.556-.448,2.117,2.117,0,0,1-.333-3.055c.521-.661,1.078-1.3,1.656-1.907a1.688,1.688,0,0,0,.487-1.914,6.46,6.46,0,0,1,1.027-6.256,2.348,2.348,0,0,1,1.965-.991C5140.071-356.855,5140.959-356.847,5141.856-356.847ZM5151-332.409q2.41,0,4.819,0c1.083,0,1.429-.463,1.136-1.513-.2-.718-.416-1.431-.605-2.152a7.621,7.621,0,0,1,.8-6.279c.524-.833,1.038-1.674,1.529-2.527a10.121,10.121,0,0,0,1.378-3.272,12.661,12.661,0,0,0-.728-6.5.84.84,0,0,0-.857-.566c-1.1,0-2.2,0-3.293,0a.485.485,0,0,0-.337.106c-.475.6-.958,1.187-1.382,1.818a4.826,4.826,0,0,0-.593,2.375,2.351,2.351,0,0,1-2.2,2.181c-1.223.045-2.449.047-3.671,0a2.356,2.356,0,0,1-2.238-2.247,4.718,4.718,0,0,0-.62-2.368c-.416-.618-.893-1.195-1.36-1.775a.5.5,0,0,0-.343-.093c-1.05-.007-2.1-.02-3.149.008a.973.973,0,0,0-.676.266,4.636,4.636,0,0,0-1.136,3.337,15.4,15.4,0,0,0,.438,2.138,2.43,2.43,0,0,1-.534,2.349c-.656.735-1.308,1.474-1.941,2.229-.373.444-.326.664.144,1.022.367.28.741.549,1.1.837a.743.743,0,0,1,.255,1.013c-.3.48-.132.761.238,1.075a.875.875,0,0,1,.24,1.227.538.538,0,0,0,.067.446,2.232,2.232,0,0,1,.311,1.952c-.237.747-.15.981.561,1.328a2.434,2.434,0,0,0,.857.26c.728.054,1.461.04,2.191.074a3.523,3.523,0,0,1,3.313,2.305,1.4,1.4,0,0,0,1.472.949C5147.788-332.421,5149.4-332.409,5151-332.409Zm-2.2-17.936c.508,0,1.018.008,1.527,0a.843.843,0,0,0,.926-.915c.017-.332.02-.668.069-1a6.568,6.568,0,0,1,1.733-3.274,5.642,5.642,0,0,0-2.826-9.255,5.675,5.675,0,0,0-6.839,3.833,5.491,5.491,0,0,0,1.193,5.421,6.425,6.425,0,0,1,1.8,4.334.806.806,0,0,0,.889.851C5147.778-350.335,5148.288-350.345,5148.8-350.345Z" transform="translate(-61.573 -95.233)"/>
    <path id="Path_4322" data-name="Path 4322" d="M5341.452-315.721c-1.447,0-2.894.008-4.34,0-.743-.006-1.164-.622-.843-1.206a.934.934,0,0,1,.938-.431c1.526,0,3.052,0,4.579,0,.986,0,1.971-.006,2.957,0a.391.391,0,0,0,.455-.295.726.726,0,0,1,.865-.506.759.759,0,0,1,.677.746c.008.111.017.222.019.333.017,1.152-.187,1.356-1.349,1.356Z" transform="translate(-239.962 -137.984)"/>
    <path id="Path_4323" data-name="Path 4323" d="M5109.34-315.606c-1.288,0-2.576,0-3.864,0-.73,0-1.035-.311-1.04-1.051a4,4,0,0,1,.045-.758.684.684,0,0,1,.731-.619,1.107,1.107,0,0,1,.772.492c.143.3.309.3.547.3h6.392c.144,0,.287,0,.429.005a.835.835,0,0,1,.879.814.835.835,0,0,1-.885.814c-1.081.014-2.163.005-3.244.006Z" transform="translate(-35.945 -138.099)"/>
    <path id="Path_4324" data-name="Path 4324" d="M5313.332-376.178c-.182-.151-.5-.293-.591-.526a.978.978,0,0,1,.076-.827,9.869,9.869,0,0,1,1.3-1.32.725.725,0,0,1,1.038.061.7.7,0,0,1,.13.99,17.959,17.959,0,0,1-1.442,1.449C5313.754-376.263,5313.583-376.258,5313.332-376.178Z" transform="translate(-219.293 -84.391)"/>
    <path id="Path_4325" data-name="Path 4325" d="M5254.439-405.217c0-.27-.013-.542,0-.811a.83.83,0,0,1,.8-.8.817.817,0,0,1,.809.782c.021.572.021,1.146,0,1.718a.791.791,0,0,1-.817.764.816.816,0,0,1-.791-.749.776.776,0,0,1,0-.1q0-.406,0-.812Z" transform="translate(-168.008 -59.929)"/>
    <path id="Path_4326" data-name="Path 4326" d="M5189.737-376.983c-.127.167-.25.477-.467.572a.967.967,0,0,1-.826-.026,10.818,10.818,0,0,1-1.382-1.36.694.694,0,0,1,.018-.921c.218-.283.589-.5.865-.269a22.69,22.69,0,0,1,1.7,1.671C5189.692-377.267,5189.688-377.168,5189.737-376.983Z" transform="translate(-108.545 -84.355)"/>
    <path id="Path_4327" data-name="Path 4327" d="M5231.3-202.548c1.018,0,2.036-.007,3.053,0,.65.006,1.067.369.951.9a1.506,1.506,0,0,1-.547.688c-.11.093-.335.066-.509.066q-2.982.006-5.964,0c-.619,0-.957-.209-1.057-.618-.138-.562.259-1.026.925-1.036C5229.2-202.558,5230.25-202.548,5231.3-202.548Z" transform="translate(-144.029 -239.778)"/>
  </g>
</svg>
