<svg id="Group_4054" data-name="Group 4054" xmlns="http://www.w3.org/2000/svg" width="51.902" height="29.437" viewBox="0 0 51.902 29.437">
  <path id="Path_4299" data-name="Path 4299" d="M1638.921-1893.682a9.141,9.141,0,0,1,1.453.443c.977.481,1.924,1.023,2.872,1.559.706.4,1.389.837,2.093,1.239a8.386,8.386,0,0,0,3.849,1.024,63.564,63.564,0,0,0,7.1-.278c1.887-.124,3.783-.124,5.674-.182,1.005-.031,2.016-.013,3.013-.117a1.277,1.277,0,0,0,.971-2.064,4.035,4.035,0,0,0-2.005-1.578,15.235,15.235,0,0,0-4.43-.9c-1.172-.116-2.348-.211-3.511-.389a4.219,4.219,0,0,1-2.247-1.157,3.355,3.355,0,0,1-1.1-3.487,8.725,8.725,0,0,1,3.233-4.876,3.432,3.432,0,0,1,2.775-.579,2.468,2.468,0,0,1,.77.393c.685.41,1.365.83,2.045,1.248a1.438,1.438,0,0,0,1.677-.118c.931-.582,1.927-1.062,2.9-1.571a6,6,0,0,1,.75-.273,1.09,1.09,0,0,0-.137-.178,16.944,16.944,0,0,0-6.252-3.394,11.066,11.066,0,0,0-6.729.374c-1.854.683-3.672,1.465-5.508,2.2a26.9,26.9,0,0,1-6.611,1.921c-.878.11-1.761.173-2.623.255,0-.673-.009-1.305.015-1.936,0-.058.214-.138.336-.155.942-.13,1.89-.22,2.828-.373a32.983,32.983,0,0,0,6.841-2.074q2.545-1.011,5.1-1.984a10.779,10.779,0,0,1,5.125-.411,14.045,14.045,0,0,1,5.529,2.039c1.534.9,2.982,1.952,4.462,2.947.231.156.42.373.639.548a1.11,1.11,0,0,1,.369,1.2.437.437,0,0,1-.269.248c-.979.307-1.964.594-2.946.894a8.854,8.854,0,0,0-2.348,1.155c-.063.042-.131.078-.189.125-1.433,1.177-2.927.965-4.412.146-.632-.348-1.205-.8-1.8-1.209-.55-.376-.782-.4-1.263.045a6.31,6.31,0,0,0-2.141,3.855,3.067,3.067,0,0,0,.172,1.233,1.216,1.216,0,0,0,1.069.875c1.393.181,2.784.372,4.18.527a15.459,15.459,0,0,1,4.807,1.124,5.465,5.465,0,0,1,2.725,2.488,3.276,3.276,0,0,1-1.146,4.453,3.35,3.35,0,0,1-1.71.431c-2,.059-4,.063-6,.149-1.674.072-3.345.219-5.016.351a26.787,26.787,0,0,1-6.792-.162,11.883,11.883,0,0,1-4.133-1.807q-1.394-.858-2.817-1.668c-.316-.179-.681-.27-1.015-.419-.09-.04-.21-.147-.213-.226C1638.913-1892.38,1638.921-1892.993,1638.921-1893.682Z" transform="translate(-1629.772 1911.229)"/>
  <path id="Path_4300" data-name="Path 4300" d="M2003.475-1772.249c-.516-.346-1.013-.668-1.492-1.017-.052-.038-.039-.271.024-.342a19.066,19.066,0,0,1,1.746-1.909,10.41,10.41,0,0,1,16.326,3.7,10.361,10.361,0,0,1-5.041,13.546,10.207,10.207,0,0,1-5.52.952,10.327,10.327,0,0,1-7.683-4.573,1.053,1.053,0,0,1-.064-.131l1.644-1.049a8.571,8.571,0,0,0,6.986,3.764,8.134,8.134,0,0,0,6.083-2.43,8.4,8.4,0,0,0,.031-11.808,8.127,8.127,0,0,0-6.825-2.429A8.433,8.433,0,0,0,2003.475-1772.249Z" transform="translate(-1969.04 1786.705)"/>
  <path id="Path_4301" data-name="Path 4301" d="M1498.194-1854.528c0-2.271-.006-4.541,0-6.811a2.553,2.553,0,0,1,.433-1.722,2.578,2.578,0,0,1,2.124-1.114c1.027.02,2.055.023,3.083.021a2.293,2.293,0,0,1,2.084,1.3,2.749,2.749,0,0,1,.379,1.441c-.018,4.7-.009,9.407-.008,14.11a2.584,2.584,0,0,1-2.2,2.345c-1.124.045-2.249.066-3.374.054a2.52,2.52,0,0,1-2.361-1.641,3.062,3.062,0,0,1-.156-1.209c-.013-2.259-.006-4.519-.006-6.779Zm1.924-.054c.049,2.377.1,4.733.148,7.088.011.483.021.516.488.525.992.021,1.986,0,2.979,0,.285,0,.4-.139.41-.415.019-.637.069-1.274.07-1.911q.011-5.237,0-10.473c0-.637-.048-1.274-.068-1.911-.008-.263-.093-.427-.4-.426-1,0-2.007-.007-3.011-.014-.356,0-.474.172-.479.523C1500.222-1859.25,1500.167-1856.906,1500.118-1854.582Z" transform="translate(-1498.19 1867.235)"/>
  <path id="Path_4302" data-name="Path 4302" d="M2094.925-1715.893c.071.005.233.013.394.03a.782.782,0,0,1,.744.654,3.14,3.14,0,0,1,.061.317.782.782,0,0,0,.457.636,4.377,4.377,0,0,1,1.049.894.818.818,0,0,1-.012,1.1,1.054,1.054,0,0,1-1.192.505c-.22-.078-.409-.241-.628-.326a4.711,4.711,0,0,0-1.033-.316.88.88,0,0,0-.581.223.593.593,0,0,0,.017,1.015,8.327,8.327,0,0,0,.929.589c.654.378,1.341.706,1.968,1.125a2.961,2.961,0,0,1,.9,4,3.2,3.2,0,0,1-1.571,1.486c-.113.045-.175.218-.258.333-.011.016-.007.042-.01.063-.161,1.122-.964,1.322-1.867,1.056a.922.922,0,0,1-.689-.815.786.786,0,0,0-.3-.454c-.241-.178-.546-.272-.783-.453a4.653,4.653,0,0,1-.895-.821.894.894,0,0,1,.073-1.141.864.864,0,0,1,1.058-.347,10.8,10.8,0,0,1,1.191.5,1.64,1.64,0,0,0,1.691-.151.912.912,0,0,0,.07-1.513c-.363-.268-.78-.46-1.168-.693-.564-.338-1.134-.669-1.686-1.028a2.766,2.766,0,0,1-.367-4.195c.23-.239.525-.417.759-.654a1.159,1.159,0,0,0,.349-.547C2093.735-1715.7,2093.922-1715.884,2094.925-1715.893Z" transform="translate(-2052.886 1728.589)"/>
</svg>
