<svg xmlns="http://www.w3.org/2000/svg" width="21.88" height="21.876" viewBox="0 0 21.88 21.876">
  <g id="Group_4097" data-name="Group 4097" transform="translate(-3498.311 -2927.854)">
    <path id="Path_4375" data-name="Path 4375" d="M3501.1,2949.731h-1.923a1.254,1.254,0,0,1-.862-1.37c.023-2.193.008-4.386.009-6.579a1.083,1.083,0,0,1,1.133-1.167c.463-.009.926,0,1.388,0a1.1,1.1,0,0,1,1.007.6c.025.046.069.114.106.115.279.01.558.005.84.005a7.023,7.023,0,0,1,1.054-6.912c-.343.114-.646.235-.959.311a1.727,1.727,0,0,1-.669.052,1.2,1.2,0,0,1-.978-1.025,1.239,1.239,0,0,1,.633-1.253q2.886-1.761,5.773-3.52a2.751,2.751,0,0,1,1.477-.412c2.427,0,4.855,0,7.282.005a.271.271,0,0,0,.279-.162,1.039,1.039,0,0,1,.958-.568q.726,0,1.452,0a1.189,1.189,0,0,1,.253.028,1.176,1.176,0,0,1,.84.825v7.392a1.205,1.205,0,0,1-1.36.876c-.369-.021-.741-.006-1.111,0a1.127,1.127,0,0,1-1.067-.616.209.209,0,0,0-.132-.106c-.267-.01-.535-.005-.823-.005a6.891,6.891,0,0,1,.407,3.587,6.993,6.993,0,0,1-1.466,3.333c.371-.123.675-.246.99-.321a1.689,1.689,0,0,1,.669-.047,1.193,1.193,0,0,1,.97,1.033,1.241,1.241,0,0,1-.627,1.238q-2.894,1.769-5.79,3.532a2.754,2.754,0,0,1-1.48.406c-1.879-.007-3.759,0-5.638,0-.555,0-1.111,0-1.666,0-.066,0-.172.029-.193.076A1.275,1.275,0,0,1,3501.1,2949.731Zm8.9-5.008c1.007-.338,2-.669,2.983-1a.523.523,0,0,0,.142-.091,6.183,6.183,0,0,0,1.729-7.5.406.406,0,0,0-.127-.161c-.411-.266-.83-.52-1.24-.788a2.375,2.375,0,0,0-1.368-.4c-.491.008-.982,0-1.473,0a2.519,2.519,0,0,1-.467-.031,1.965,1.965,0,0,1-1.656-1.869.292.292,0,0,0-.062.008q-1.444.479-2.888.962a.591.591,0,0,0-.163.1,6.185,6.185,0,0,0-1.73,7.518.408.408,0,0,0,.131.156c.364.235.738.453,1.1.7a2.629,2.629,0,0,0,1.622.488c.476-.019.954.008,1.43-.006A2,2,0,0,1,3509.991,2944.723Zm-8.011,3.551h7.407a2.012,2.012,0,0,0,1.074-.3q1.145-.7,2.294-1.4c1.147-.7,2.3-1.394,3.438-2.1a.745.745,0,0,0,.317-.371c.116-.4-.28-.7-.706-.554-1.865.639-3.741,1.248-5.606,1.888a4.58,4.58,0,0,1-1.707.288c-.618-.026-1.238,0-1.857-.006a2.767,2.767,0,0,0-1.7.523.365.365,0,0,1-.56-.056c-.13-.186-.079-.386.142-.546a3.316,3.316,0,0,1,1.97-.649c.8,0,1.608-.008,2.412,0a.277.277,0,0,0,.315-.263.778.778,0,0,0-.172-.659,1.347,1.347,0,0,0-1.069-.536c-.59-.008-1.181,0-1.772,0a2.274,2.274,0,0,1-1.147-.279c-.388-.222-.76-.473-1.133-.719a2.822,2.822,0,0,0-1.94-.438Zm14.549-12.785v-6.164c-.068,0-.123-.012-.178-.012q-3.631,0-7.262,0a1.982,1.982,0,0,0-1.051.3q-2.848,1.741-5.7,3.476a1.56,1.56,0,0,0-.194.131.467.467,0,0,0-.148.5.409.409,0,0,0,.349.332.937.937,0,0,0,.392-.044c2.041-.677,4.079-1.363,6.121-2.038a2.188,2.188,0,0,1,.646-.106c.8-.012,1.595-.006,2.392,0a2.752,2.752,0,0,0,1.68-.523.365.365,0,0,1,.563.043.37.37,0,0,1-.13.55,3.282,3.282,0,0,1-1.946.657c-.79.008-1.58,0-2.371,0-.32,0-.436.107-.4.433a1.02,1.02,0,0,0,.174.468,1.3,1.3,0,0,0,1.079.552q.843.012,1.687,0a2.657,2.657,0,0,1,1.459.4c.291.179.571.374.853.566A2.83,2.83,0,0,0,3516.529,2935.489Zm.753-3.084q0,1.666,0,3.331c0,.4.1.5.507.5h1.2c.352,0,.478-.123.478-.472q0-3.353,0-6.706c0-.336-.133-.471-.462-.473q-.63,0-1.26,0c-.335,0-.459.129-.459.468Q3517.281,2930.727,3517.281,2932.4Zm-16.053,12.773q0-1.7,0-3.4c0-.3-.125-.427-.426-.429q-.651,0-1.3,0c-.322,0-.451.129-.451.454q0,3.364,0,6.727c0,.334.133.467.465.469.413,0,.825,0,1.239,0,.353,0,.476-.124.476-.473Q3501.229,2946.853,3501.229,2945.177Z" transform="translate(0)"/>
    <path id="Path_4376" data-name="Path 4376" d="M3654.251,3057.192v1.743a6.874,6.874,0,0,1,.865.313,1.47,1.47,0,0,1,.927,1.472,1.382,1.382,0,0,1-.528.965,2.318,2.318,0,0,1-1.049.494l-.229.046c0,.126.007.246,0,.365a.369.369,0,0,1-.362.373.373.373,0,0,1-.381-.376c-.033-.357-.035-.351-.376-.448a1.8,1.8,0,0,1-1.393-1.214,1.178,1.178,0,0,1-.039-.336.359.359,0,0,1,.325-.361.383.383,0,0,1,.394.293,1.1,1.1,0,0,0,1.07.93v-1.773a2.671,2.671,0,0,1-.516-.144,3.513,3.513,0,0,1-.832-.5,1.342,1.342,0,0,1,.08-2.075,2.139,2.139,0,0,1,1.049-.49c.206-.033.265-.117.238-.3a.553.553,0,0,1,.007-.17.364.364,0,0,1,.366-.321c.187,0,.382.134.354.322-.06.409.188.449.483.533a1.725,1.725,0,0,1,1.3,1.173,1.219,1.219,0,0,1,.042.357.358.358,0,0,1-.334.352.382.382,0,0,1-.385-.3A1.086,1.086,0,0,0,3654.251,3057.192Zm-.774,1.714v-1.714a1.422,1.422,0,0,0-.89.43.575.575,0,0,0-.05.777A1.419,1.419,0,0,0,3653.477,3058.906Zm.772,2.553a1.464,1.464,0,0,0,.915-.469.563.563,0,0,0,.107-.615,1.189,1.189,0,0,0-1.022-.609Z" transform="translate(-144.609 -120.526)"/>
    <path id="Path_4377" data-name="Path 4377" d="M3716.269,3080.621a5.525,5.525,0,0,1-3.646,5.16c-.282.1-.484.033-.566-.19s.026-.395.318-.507l.1-.038a4.741,4.741,0,0,0,2.727-6.1c-.13-.356-.083-.562.159-.647s.411.042.529.387a6.717,6.717,0,0,1,.256.9C3716.21,3079.926,3716.23,3080.275,3716.269,3080.621Z" transform="translate(-201.522 -141.837)"/>
    <path id="Path_4378" data-name="Path 4378" d="M3594.278,3033.57a5.45,5.45,0,0,1,3.64-5.078c.266-.093.467-.021.547.2s-.028.4-.3.5a4.661,4.661,0,0,0-3.108,3.8,4.462,4.462,0,0,0,.26,2.347c.134.355.085.562-.156.648s-.4-.04-.532-.385A5.435,5.435,0,0,1,3594.278,3033.57Z" transform="translate(-90.49 -94.856)"/>
  </g>
</svg>
