<svg xmlns="http://www.w3.org/2000/svg" width="69.388" height="25.979" viewBox="0 0 69.388 25.979">
  <g id="Group_4066" data-name="Group 4066" transform="translate(-4832.545 -140.944)">
    <path id="Path_4315" data-name="Path 4315" d="M4832.545,149.749c.659-2.13,2.377-2.575,4.295-2.687a22.253,22.253,0,0,0,9.511-2.8,22.742,22.742,0,0,1,6.431-2.774,24.919,24.919,0,0,1,4.147-.5c3.046-.075,6.1-.02,9.145-.024a15.6,15.6,0,0,1,8.64,2.506q3.727,2.4,7.482,4.75a2.439,2.439,0,0,0,1.125.349,50.681,50.681,0,0,1,13.06,2.01,19.223,19.223,0,0,1,2.391.924,5.164,5.164,0,0,1,3.145,4.883q.037,1.964,0,3.929a3.3,3.3,0,0,1-2.785,3.335,1.124,1.124,0,0,1-1.387-.769c-.141-.629.224-1.1.981-1.269a1.224,1.224,0,0,0,1.139-1.357c.054-1.349.014-2.7.014-4.168a15.972,15.972,0,0,1-1.956-.021,1.849,1.849,0,0,1-1.1-.493.963.963,0,0,1,.68-1.533,7.318,7.318,0,0,0,1.21-.2,9.645,9.645,0,0,0-.978-.563,31.1,31.1,0,0,0-7.818-2.047,67.5,67.5,0,0,0-10.4-.583c-6.729.022-13.458.007-20.187.006-.226,0-.453.01-.677-.008a1.1,1.1,0,0,1-1.139-1.024,1.083,1.083,0,0,1,1.171-1.052c.835-.019,1.671-.005,2.506-.005h.6v-5.422c-.018-.015-.051-.068-.083-.068a42.785,42.785,0,0,0-7.965.268,1.334,1.334,0,0,0-1.279,1.251c-.214,1.3-.551,2.585-.858,3.971.824,0,1.565-.006,2.306,0,.843.008,1.3.38,1.3,1.041s-.452,1.052-1.3,1.038a22.924,22.924,0,0,1-3.1-.164,6.427,6.427,0,0,1-3.672-2.143c-.449-.475-.874-1.185-1.415-1.3-.52-.112-1.178.4-1.771.645a23.325,23.325,0,0,1-6.452,1.386c-.6.068-1.209.144-1.81.244a1.142,1.142,0,0,0-1.1,1.222c-.018.4,0,.8,0,1.231.865.177,2.172-.293,2.13,1.148-.039,1.331-1.265.879-2.092,1.039,0,1.1-.073,2.21.022,3.3a2.06,2.06,0,0,0,1.6,1.822c1.271.381,2.553.728,3.879,1.1a6.618,6.618,0,0,1,2.668-4.908,6.211,6.211,0,0,1,4.056-1.25,6.306,6.306,0,0,1,4.755,2.372,6.555,6.555,0,0,1,1.387,5.165h29.491a19.1,19.1,0,0,1,.215-2.5,6.422,6.422,0,0,1,7.433-4.95,6.458,6.458,0,0,1,.611,12.566,6.371,6.371,0,0,1-7-2.453,1.174,1.174,0,0,0-1.107-.55q-14.87.019-29.737,0a1.128,1.128,0,0,0-1.049.53,6.141,6.141,0,0,1-5.726,2.7,6.221,6.221,0,0,1-5.459-3.953,1.084,1.084,0,0,0-.792-.711c-1.068-.274-2.113-.646-3.189-.878a4.977,4.977,0,0,1-4.125-3.611Zm46.213-1.232c-.295-.206-.467-.335-.649-.451-1.424-.91-2.86-1.8-4.275-2.729a12.471,12.471,0,0,0-5.625-2.155c-1.395-.134-2.812-.026-4.222-.026v5.361Zm5.808,11.944a4.382,4.382,0,0,0,4.369,4.4,4.387,4.387,0,1,0,.009-8.774A4.351,4.351,0,0,0,4884.566,160.461Zm-33.581.028a4.35,4.35,0,0,0-4.35-4.4,4.388,4.388,0,1,0,4.35,4.4Zm-.6-15.961-2.554,1.269,1.806,2.048C4849.9,146.7,4850.123,145.687,4850.384,144.528Z"/>
    <path id="Path_4316" data-name="Path 4316" d="M4970.958,233.088q-5.448,0-10.9,0a3.137,3.137,0,0,1-.738-.052.964.964,0,0,1-.8-1.027.949.949,0,0,1,.814-.947,3.794,3.794,0,0,1,.738-.059q10.863,0,21.724,0c.068,0,.136,0,.2,0,.87.017,1.39.412,1.384,1.053s-.521,1.034-1.4,1.035Q4976.473,233.091,4970.958,233.088Z" transform="translate(-103.171 -73.752)"/>
    <path id="Path_4317" data-name="Path 4317" d="M5137.727,241.9c-.162.217-.314.615-.587.733a1.235,1.235,0,0,1-1.056-.04,13.905,13.905,0,0,1-1.82-1.8.8.8,0,0,1,.121-1.207c.3-.209.922-.383,1.131-.222a19.558,19.558,0,0,1,2.03,1.962C5137.643,241.425,5137.643,241.619,5137.727,241.9Z" transform="translate(-246.921 -80.551)"/>
    <path id="Path_4318" data-name="Path 4318" d="M4904.161,240.059c-.023.841-1.93,2.791-2.534,2.718a1.3,1.3,0,0,1-.907-.536,1.173,1.173,0,0,1,.094-1.044,10.54,10.54,0,0,1,1.716-1.715,1.229,1.229,0,0,1,1.048-.094C4903.869,239.51,4904.044,239.914,4904.161,240.059Z" transform="translate(-55.767 -80.562)"/>
  </g>
</svg>
