<svg xmlns="http://www.w3.org/2000/svg" width="14.824" height="16.938" viewBox="0 0 14.824 16.938">
  <g id="Group_3865" data-name="Group 3865" transform="translate(-5197.077 -1988.164)">
    <path id="Path_4250" data-name="Path 4250" d="M5206.307,2005.1H5198.4a.3.3,0,0,0-.057-.029,1.555,1.555,0,0,1-1.265-1.608q0-4.714,0-9.427a1.888,1.888,0,0,1,.053-.457,1.569,1.569,0,0,1,1.6-1.171h.465c0-.2,0-.379,0-.554a1.546,1.546,0,0,1,1.338-1.542c.253-.039.513-.028.8-.042,0-.209-.011-.418,0-.625a1.54,1.54,0,0,1,1.575-1.48q1.6,0,3.192,0a2.884,2.884,0,0,1,2.077.835q1.459,1.429,2.889,2.889a2.787,2.787,0,0,1,.819,1.967c.016,1.825.01,3.65,0,5.475a1.533,1.533,0,0,1-1.378,1.5c-.239.022-.481,0-.741,0,0,.195,0,.353,0,.511a1.577,1.577,0,0,1-1.64,1.632h-.491c0,.178,0,.337,0,.5a1.48,1.48,0,0,1-.6,1.281A4.15,4.15,0,0,1,5206.307,2005.1Zm.3-5.252h3.639a.575.575,0,0,0,.653-.647q0-2.572,0-5.143a.572.572,0,0,0-.64-.643c-.657,0-1.312,0-1.969,0a1.578,1.578,0,0,1-1.65-1.655c0-.639,0-1.279,0-1.918,0-.479-.205-.687-.68-.687H5203c-.458,0-.67.209-.67.663v9.377c0,.451.2.654.656.654Zm.027,3.131h-.221q-2.77,0-5.54,0a2.057,2.057,0,0,1-.474-.048,1.562,1.562,0,0,1-1.2-1.592q0-3.852,0-7.7v-.214c-.229,0-.432-.009-.635,0a.539.539,0,0,0-.242.09.6.6,0,0,0-.251.559q0,4.671,0,9.341c0,.483.212.695.695.695h7.193c.05,0,.1,0,.148,0a.556.556,0,0,0,.525-.468C5206.652,2003.428,5206.637,2003.213,5206.637,2002.981Zm-5.308-11.7h-.42c-.508,0-.7.194-.7.7v9.312c0,.491.2.692.692.692h7.179a1.338,1.338,0,0,0,.246-.019.482.482,0,0,0,.42-.393,4.559,4.559,0,0,0,.008-.714h-.22q-2.761,0-5.524,0a1.667,1.667,0,0,1-1.026-.3,1.6,1.6,0,0,1-.651-1.375q.006-3.829,0-7.658Zm8.764,1.119-2.449-2.449c0,.535,0,1.1,0,1.667a2.331,2.331,0,0,0,.017.346.512.512,0,0,0,.458.433C5208.789,1992.41,5209.459,1992.4,5210.093,1992.4Z" transform="translate(0)" fill="#fff"/>
    <path id="Path_4251" data-name="Path 4251" d="M5367.088,2135.247l1.39-2.085c.1-.156.205-.313.313-.466a.5.5,0,1,1,.832.546q-1.052,1.59-2.116,3.172a.492.492,0,0,1-.844,0c-.349-.514-.693-1.032-1.036-1.551a.5.5,0,1,1,.831-.551C5366.665,2134.611,5366.868,2134.917,5367.088,2135.247Z" transform="translate(-161.005 -137.92)" fill="#fff"/>
  </g>
</svg>
