<svg xmlns="http://www.w3.org/2000/svg" width="45.533" height="44.049" viewBox="0 0 45.533 44.049">
  <g id="Group_4068" data-name="Group 4068" transform="translate(-4390.437 -499.662)">
    <path id="Path_4328" data-name="Path 4328" d="M4417.546,539.251V542h-1.185c-6.763,0-13.526-.061-20.288.027a5.361,5.361,0,0,1-5.635-5.554c.1-10.5.032-20.993.039-31.489a4.908,4.908,0,0,1,5.239-5.3q13.842-.028,27.685,0a4.946,4.946,0,0,1,5.273,5.2c.08,3.1.01,6.2.027,9.3,0,.606-.166.933-.838.89-.586-.038-1.177-.008-1.87-.008v-5.2c0-1.62.019-3.241-.005-4.861a2.476,2.476,0,0,0-2.513-2.679c-.245-.022-.493-.008-.739-.008h-26.312c-.211,0-.423-.008-.634,0a2.418,2.418,0,0,0-2.625,2.736c-.016,3.24-.005,6.481-.005,9.722q0,10.673,0,21.345c0,2.445.7,3.138,3.131,3.138h21.255Z" transform="translate(0 0)"/>
    <path id="Path_4329" data-name="Path 4329" d="M4605.5,626.826a9.32,9.32,0,0,1,9.384,9.471,9.416,9.416,0,1,1-9.384-9.471Zm.039,2.757a6.65,6.65,0,0,0-6.731,6.542,6.657,6.657,0,0,0,13.313.241A6.593,6.593,0,0,0,4605.538,629.583Z" transform="translate(-178.912 -110.65)"/>
    <path id="Path_4330" data-name="Path 4330" d="M4619.514,763.441a1.1,1.1,0,0,1,.235-.033c2.411.683,2.412.683,2.422,3.186,0,.3,0,.607,0,1.115,1.095-.794,2.042-1.44,2.939-2.147a1.031,1.031,0,0,1,1.544-.035c.875.741,1.844,1.37,2.964,2.186,0-.99.05-1.783-.015-2.566a1.035,1.035,0,0,1,.9-1.283c.571-.134,1.123-.355,1.788-.572V773.1l-6.376-4.653-6.4,4.649Z" transform="translate(-199.328 -229.393)"/>
    <path id="Path_4331" data-name="Path 4331" d="M4447.752,570.076c-.265-2.839-.265-2.839,2.387-2.839h19.342c1.474,0,1.474,0,1.474,1.5v1.337Z" transform="translate(-49.774 -58.799)"/>
    <path id="Path_4332" data-name="Path 4332" d="M4447.657,626.556a2.123,2.123,0,0,1-.122-.275c-.277-2.639-.277-2.639,2.362-2.639h14.728a13.914,13.914,0,0,1-.047,2.339c-.042.241-.635.547-.979.55-4.227.038-8.453.025-12.68.025Z" transform="translate(-49.579 -107.88)"/>
    <path id="Path_4333" data-name="Path 4333" d="M4464.766,679.048c.528,2.806.429,2.931-2.182,2.931-4.535,0-9.07-.028-13.605.022-.979.011-1.277-.266-1.231-1.243.094-1.97-.219-1.7,1.782-1.707C4454.591,679.04,4459.652,679.048,4464.766,679.048Z" transform="translate(-49.864 -156.085)"/>
    <path id="Path_4334" data-name="Path 4334" d="M4448.409,737.757v-2.763c.426-.029.835-.082,1.244-.083q7.223-.009,14.446,0c1.393,0,1.394,0,1.395,1.353,0,.482,0,.964,0,1.5Z" transform="translate(-50.443 -204.696)"/>
    <path id="Path_4335" data-name="Path 4335" d="M4641.366,675.864a4.007,4.007,0,0,1-4.023-4.124,4.087,4.087,0,0,1,4.1-3.975,4.172,4.172,0,0,1,4.055,4.165A4.1,4.1,0,0,1,4641.366,675.864Zm2.433-4.011a2.39,2.39,0,1,0-2.364,2.365A2.491,2.491,0,0,0,4643.8,671.853Z" transform="translate(-214.842 -146.273)"/>
  </g>
</svg>
