<svg id="Group_4049" data-name="Group 4049" xmlns="http://www.w3.org/2000/svg" width="39.639" height="39.682" viewBox="0 0 39.639 39.682">
  <path id="Path_4261" data-name="Path 4261" d="M2694.769-1111.472h1.2v1.251h-34.513v-1.249h1.25v-.513q0-2.841,0-5.683a.4.4,0,0,0-.23-.442,1.783,1.783,0,0,1-1.051-1.662,1.86,1.86,0,0,1,1.05-1.753c1.647-.9,3.291-1.81,4.951-2.688a.677.677,0,0,0,.407-.713q-.015-10.946-.008-21.892v-.517h1.281c0-.254,0-.463,0-.673a1.891,1.891,0,0,1,1.878-1.89q7.723-.008,15.446,0a1.891,1.891,0,0,1,1.88,1.888c0,.21,0,.42,0,.66h1.281v.531q0,10.966-.006,21.931a.62.62,0,0,0,.371.65c1.647.874,3.279,1.774,4.912,2.672a1.928,1.928,0,0,1,1.042,2.34,1.938,1.938,0,0,1-.958,1.129.456.456,0,0,0-.228.306c-.011,2.067-.006,4.135,0,6.2C2694.721-1111.563,2694.74-1111.539,2694.769-1111.472Zm-23.1-13.675c0-.782.011-1.489-.01-2.2a.5.5,0,0,0-.222-.353,1.936,1.936,0,0,1-1-2.153,1.912,1.912,0,0,1,1.972-1.478q6.3,0,12.6,0a2.339,2.339,0,0,1,.554.05,1.93,1.93,0,0,1,1.46,1.574,1.949,1.949,0,0,1-1,1.983c-.11.064-.259.188-.262.288-.022.741-.011,1.483-.011,2.286.366-.2.686-.354.988-.538a.5.5,0,0,1,.586-.005c.3.186.622.343.965.528v-17.67h-19.156v17.673a10.345,10.345,0,0,1,.989-.525.777.777,0,0,1,.537,0A11,11,0,0,1,2671.666-1125.147Zm21.77,13.654c0-2.126,0-4.205-.009-6.285a.4.4,0,0,0-.19-.286c-1.924-1.058-3.859-2.1-5.778-3.164a.78.78,0,0,0-.872.013q-2.775,1.54-5.575,3.037a.626.626,0,0,0-.4.661c.019,1.867.009,3.733.009,5.6v.41h3.2c0-1.512-.005-2.992,0-4.471a1.892,1.892,0,0,1,1.908-1.9c.839-.006,1.68,0,2.519,0a1.9,1.9,0,0,1,1.969,1.96c0,1.333,0,2.667,0,4v.426Zm-16.648,0c0-2.125,0-4.216-.007-6.307a.366.366,0,0,0-.173-.257c-1.949-1.068-3.906-2.123-5.852-3.2a.653.653,0,0,0-.728-.008c-1.874,1.039-3.751,2.072-5.647,3.071a.652.652,0,0,0-.408.7c.015,1.853.007,3.707.007,5.56v.434h3.2v-.46c0-1.32,0-2.64,0-3.96a1.9,1.9,0,0,1,1.971-1.958c.84,0,1.68-.005,2.52,0a1.892,1.892,0,0,1,1.906,1.9c.007,1.347,0,2.693,0,4.04v.444Zm-3.844-15.979c0,.924.012,1.8-.007,2.682a.5.5,0,0,0,.318.521c1.826.984,3.645,1.984,5.475,2.984.188-.11.39-.236.6-.35,1.542-.843,3.077-1.7,4.635-2.514a.822.822,0,0,0,.52-.889c-.039-.806-.011-1.616-.011-2.433Zm15.352-18.559h-19.161v1.875H2688.3Zm6.417,26.239a.818.818,0,0,0-.537-.681q-3.42-1.858-6.833-3.732a.553.553,0,0,0-.615,0c-2.191,1.207-4.389,2.4-6.584,3.6a3.469,3.469,0,0,0-.548.324.56.56,0,0,0-.151.783.59.59,0,0,0,.753.281,2.844,2.844,0,0,0,.394-.191q3.068-1.671,6.131-3.35a.55.55,0,0,1,.613-.005c1.431.795,2.871,1.573,4.308,2.356.689.376,1.374.761,2.069,1.125A.646.646,0,0,0,2694.712-1119.792Zm-31.425.689c.251-.116.423-.184.585-.272,2.047-1.112,4.094-2.221,6.133-3.347a.68.68,0,0,1,.755-.007q3.073,1.7,6.165,3.368c.179.1.435.218.587.157a.972.972,0,0,0,.523-.515c.109-.333-.147-.559-.437-.717-2.326-1.266-4.65-2.538-6.982-3.792a.607.607,0,0,0-.493.016q-3.444,1.856-6.872,3.739c-.116.064-.285.114-.327.214a1.12,1.12,0,0,0-.139.68C2662.85-1119.384,2663.115-1119.256,2663.287-1119.1Zm7.1-28.262h16.626c.079-1.079-.083-1.256-1.122-1.256H2671.4a3.2,3.2,0,0,0-.4.007.645.645,0,0,0-.615.625C2670.37-1147.792,2670.386-1147.591,2670.386-1147.365Zm18.567,35.874c0-1.5.007-2.949,0-4.4a.659.659,0,0,0-.74-.706c-.76-.009-1.52-.005-2.281,0-.585,0-.817.238-.818.832q0,1.981,0,3.961c0,.1.015.2.025.316Zm-16.652.007c0-1.527.011-3.018-.008-4.508,0-.392-.3-.6-.751-.608-.747-.006-1.494,0-2.24,0-.611,0-.839.232-.84.852q0,1.961,0,3.921c0,.114.015.227.023.344Zm6.448-18.566q-3.118,0-6.235,0c-.53,0-.844.242-.845.64s.314.638.844.643h.08q6.115,0,12.229,0a.957.957,0,0,0,.537-.084.866.866,0,0,0,.361-.553.9.9,0,0,0-.359-.556.855.855,0,0,0-.5-.083Q2681.805-1130.054,2678.749-1130.05Zm-.018,11.736c-.7.136-.678.629-.672,1.157.02,1.746.007,3.492.007,5.238v.41h1.283c0-1.925-.018-3.817.011-5.709C2679.369-1117.759,2679.315-1118.185,2678.73-1118.313Z" transform="translate(-2658.89 1149.899)"/>
  <path id="Path_4262" data-name="Path 4262" d="M2595.283-125.807h-1.224v-1.231h1.224Z" transform="translate(-2594.059 165.489)"/>
  <path id="Path_4263" data-name="Path 4263" d="M3615.738-127.345h1.233v1.24h-1.233Z" transform="translate(-3577.332 165.784)"/>
  <path id="Path_4264" data-name="Path 4264" d="M3104.925-860.052h1.219v1.24h-1.219Z" transform="translate(-3085.72 870.948)"/>
  <path id="Path_4265" data-name="Path 4265" d="M3174.326-858.4h-1.23v-1.237h1.23Z" transform="translate(-3151.329 870.55)"/>
  <path id="Path_4266" data-name="Path 4266" d="M3241.162-860.076h1.221v1.242h-1.221Z" transform="translate(-3216.837 870.971)"/>
  <path id="Path_4267" data-name="Path 4267" d="M3310.593-859.38v1.214h-1.242v-1.214Z" transform="translate(-3282.462 870.301)"/>
  <path id="Path_4268" data-name="Path 4268" d="M2901.763-791.532v1.226h-1.233v-1.226Z" transform="translate(-2889.009 805.003)"/>
  <path id="Path_4269" data-name="Path 4269" d="M2970.04-790.135h-1.221v-1.242h1.221Z" transform="translate(-2954.732 804.854)"/>
  <path id="Path_4270" data-name="Path 4270" d="M3038.143-791.414v1.231h-1.228v-1.231Z" transform="translate(-3020.267 804.89)"/>
  <path id="Path_4271" data-name="Path 4271" d="M3104.954-791.617h1.23v1.228h-1.23Z" transform="translate(-3085.749 805.086)"/>
  <path id="Path_4272" data-name="Path 4272" d="M3174.431-791.39v1.229H3173.2v-1.229Z" transform="translate(-3151.432 804.867)"/>
  <path id="Path_4273" data-name="Path 4273" d="M3242.526-790.172h-1.214v-1.242h1.214Z" transform="translate(-3216.981 804.89)"/>
  <path id="Path_4274" data-name="Path 4274" d="M3310.621-790.229h-1.227v-1.235h1.227Z" transform="translate(-3282.503 804.938)"/>
  <path id="Path_4275" data-name="Path 4275" d="M2900.329-722.207v-1.229h1.228v1.229Z" transform="translate(-2888.816 739.467)"/>
  <path id="Path_4276" data-name="Path 4276" d="M2968.572-723.482h1.226v1.233h-1.226Z" transform="translate(-2954.493 739.512)"/>
  <path id="Path_4277" data-name="Path 4277" d="M3037.916-723.14v1.221h-1.242v-1.221Z" transform="translate(-3020.036 739.182)"/>
  <path id="Path_4278" data-name="Path 4278" d="M3105.128-723.758h1.214v1.242h-1.214Z" transform="translate(-3085.916 739.777)"/>
  <path id="Path_4279" data-name="Path 4279" d="M3174.463-721.97h-1.219v-1.24h1.219Z" transform="translate(-3151.472 739.25)"/>
  <path id="Path_4280" data-name="Path 4280" d="M3242.386-722.178h-1.221v-1.242h1.221Z" transform="translate(-3216.84 739.452)"/>
  <path id="Path_4281" data-name="Path 4281" d="M3310.645-722.066h-1.226V-723.3h1.226Z" transform="translate(-3282.527 739.336)"/>
  <path id="Path_4282" data-name="Path 4282" d="M3038.129-858.312h-1.214v-1.242h1.214Z" transform="translate(-3020.267 870.469)"/>
  <path id="Path_4283" data-name="Path 4283" d="M2969.728-859.477v1.225h-1.242v-1.225Z" transform="translate(-2954.41 870.394)"/>
  <path id="Path_4284" data-name="Path 4284" d="M2901.864-858.312h-1.214v-1.242h1.214Z" transform="translate(-2889.125 870.469)"/>
  <path id="Path_4285" data-name="Path 4285" d="M3310.629-927.751v1.221h-1.242v-1.221Z" transform="translate(-3282.497 936.102)"/>
  <path id="Path_4286" data-name="Path 4286" d="M3242.564-927.671v1.229h-1.228v-1.229Z" transform="translate(-3217.004 936.025)"/>
  <path id="Path_4287" data-name="Path 4287" d="M3173.086-927.9h1.23v1.228h-1.23Z" transform="translate(-3151.32 936.244)"/>
  <path id="Path_4288" data-name="Path 4288" d="M3106.225-926.511H3105v-1.235h1.228Z" transform="translate(-3085.79 936.097)"/>
  <path id="Path_4289" data-name="Path 4289" d="M3038.115-926.488h-1.226v-1.233h1.226Z" transform="translate(-3020.243 936.073)"/>
  <path id="Path_4290" data-name="Path 4290" d="M2969.96-926.511h-1.228v-1.235h1.228Z" transform="translate(-2954.647 936.097)"/>
  <path id="Path_4291" data-name="Path 4291" d="M2901.864-926.453h-1.214V-927.7h1.214Z" transform="translate(-2889.125 936.048)"/>
</svg>
