<svg xmlns="http://www.w3.org/2000/svg" width="22.181" height="17.72" viewBox="0 0 22.181 17.72">
  <path id="Path_4244" data-name="Path 4244" d="M4439.613,2105.641a5.979,5.979,0,0,1-.386.484c-.458.471-.931.927-1.387,1.4a.521.521,0,0,0-.129.315c-.015.4,0,.808-.006,1.212a.651.651,0,1,1-1.3-.006c0-.4.009-.809-.007-1.213a.513.513,0,0,0-.133-.313c-.486-.5-.985-.994-1.48-1.49a.684.684,0,0,1,.007-1.134c.5-.5,1-1,1.5-1.5a.39.39,0,0,0,.11-.237c.006-1.718,0-3.436,0-5.154,0-.034-.007-.068-.013-.125-.5.179-.987.348-1.469.536-.053.021-.087.15-.088.23-.006,1.277-.01,2.555,0,3.833a1.045,1.045,0,0,1-.349.824,6.133,6.133,0,0,1-2.489,1.342,13.555,13.555,0,0,1-4.279.482,11.446,11.446,0,0,1-3.916-.7,5.51,5.51,0,0,1-1.784-1.078,1.118,1.118,0,0,1-.391-.893c.02-1.285.006-2.57.012-3.855a.248.248,0,0,0-.193-.279c-1.17-.427-2.338-.862-3.5-1.294a.662.662,0,0,1,0-1.289q5.057-1.831,10.113-3.663a.928.928,0,0,1,.67.033q3.763,1.367,7.53,2.728c.832.3,1.665.6,2.5.9a.659.659,0,0,1,.467.863.672.672,0,0,1-.44.415c-.306.109-.608.223-.915.327-.107.037-.162.081-.162.21.006,1.869,0,3.739.009,5.609a.39.39,0,0,0,.113.236c.465.474.94.938,1.4,1.414a6.114,6.114,0,0,1,.386.484Zm-2.955-9.255c-.095-.042-.149-.073-.208-.094q-3.958-1.434-7.92-2.861a.624.624,0,0,0-.39.007q-3.189,1.145-6.372,2.3c-.581.211-1.162.42-1.776.642.087.035.139.057.19.076q3.907,1.448,7.811,2.9a.636.636,0,0,0,.475-.015q3.422-1.237,6.845-2.47C4435.749,2096.718,4436.185,2096.559,4436.658,2096.386Zm-13.715,2.493c0,1.14,0,2.237,0,3.333a.413.413,0,0,0,.179.362,4.486,4.486,0,0,0,1.583.771,13.026,13.026,0,0,0,6.5.15,5.528,5.528,0,0,0,2.16-.946.363.363,0,0,0,.158-.326c-.006-1.025,0-2.049,0-3.074v-.231c-.094.031-.161.053-.228.077q-2.345.844-4.688,1.692a1.019,1.019,0,0,1-.752.012c-1.062-.4-2.131-.8-3.2-1.19Zm14.092,7.507.919-.918-.9-.9-.919.917Z" transform="translate(-4417.433 -2092.023)"/>
</svg>
