<svg xmlns="http://www.w3.org/2000/svg" width="16.125" height="13.017" viewBox="0 0 16.125 13.017">
  <path id="Path_4113" data-name="Path 4113" d="M413.86,249.833h-12.4a1.59,1.59,0,0,1-.357-.024.8.8,0,0,1,.153-1.579c.082,0,.164,0,.246,0H413.81l.069-.088a.656.656,0,0,1-.186-.091q-2.055-2.047-4.1-4.1a.811.811,0,0,1-.058-1.179.8.8,0,0,1,1.066-.08,2.008,2.008,0,0,1,.194.18l5.491,5.492a.834.834,0,0,1,0,1.343q-2.765,2.766-5.529,5.533a.829.829,0,0,1-.87.266.8.8,0,0,1-.391-1.28c.052-.063.111-.12.169-.178l4.021-4.023C413.729,249.973,413.775,249.922,413.86,249.833Z" transform="translate(-400.496 -242.521)" fill="#fff"/>
</svg>
