<svg id="Group_4061" data-name="Group 4061" xmlns="http://www.w3.org/2000/svg" width="38.698" height="39.559" viewBox="0 0 38.698 39.559">
  <path id="Path_4304" data-name="Path 4304" d="M1615.742-1186.562c0,3.916.018,7.7-.015,11.474-.007.8.418,2.042-.983,2.023-1.3-.017-.91-1.2-.915-1.971-.028-3.784-.013-7.569-.013-11.439h-4.364v2.133c0,3.1.017,6.207-.012,9.31-.008.774.373,1.937-.923,1.97-1.32.034-.975-1.131-.98-1.91-.025-3.426-.01-6.852-.01-10.278v-1.246h-4.363v1.242q0,5.32,0,10.641c0,.743.063,1.592-.992,1.568s-.936-.9-.936-1.621c0-3.906,0-7.812,0-11.807h-4.364v2.122q0,4.9,0,9.794c0,.71.034,1.492-.929,1.514-1.059.024-1-.813-1-1.558q.006-5.32,0-10.641v-1.251h-4.363v1.231q0,5.381,0,10.762c0,.729-.024,1.474-.986,1.459s-.948-.782-.947-1.5c.006-3.947,0-7.894,0-12.026-.877,0-1.7-.03-2.53.007-.993.045-1.272-.42-1.373-1.372a3.149,3.149,0,0,1,1.862-3.457c4.848-2.79,9.606-5.738,14.371-8.67a2.005,2.005,0,0,1,2.415-.036c5.036,3.106,10.11,6.151,15.169,9.22.985.6,1.566,2.883.9,3.806a1.514,1.514,0,0,1-1.016.479C1617.621-1186.516,1616.773-1186.562,1615.742-1186.562Zm-29.449-2.557.547.525h31.207a9.555,9.555,0,0,0-1-.88c-4.739-2.886-9.478-5.772-14.245-8.613a1.478,1.478,0,0,0-1.265.033c-4.731,2.822-9.431,5.694-14.149,8.538A5.9,5.9,0,0,1,1586.293-1189.119Z" transform="translate(-1582.85 1200.477)"/>
  <path id="Path_4305" data-name="Path 4305" d="M1592.892-762.254c.547,0,.909.005,1.271,0,.733-.012,1.142.321,1.145,1.076q.008,2.055,0,4.111a.981.981,0,0,1-1.131,1.094c-1.048,0-2.1,0-3.143,0h-32.644c-1.71,0-1.773-.066-1.776-1.779,0-.967,0-1.935,0-2.9.006-1.463.11-1.564,1.589-1.6.235-.006.469-.025.829-.044,0-1,.03-1.957-.008-2.913s.307-1.407,1.32-1.406q15.6.024,31.193,0c.982,0,1.4.383,1.363,1.365C1592.862-764.3,1592.892-763.336,1592.892-762.254Zm.446,2.016H1558.6v2.267h34.736Zm-32.324-2.1h29.854v-2.281h-29.854Z" transform="translate(-1556.613 795.532)"/>
</svg>
