<svg xmlns="http://www.w3.org/2000/svg" xmlns:xlink="http://www.w3.org/1999/xlink" width="1920" height="1080" viewBox="0 0 1920 1080">
  <defs>
    <clipPath id="clip-Sign_Up_1">
      <rect width="1920" height="1080"/>
    </clipPath>
  </defs>
  <g id="Sign_Up_1" data-name="Sign Up – 1" clip-path="url(#clip-Sign_Up_1)">
    <rect width="1920" height="1080" fill="#fff"/>
    <g id="Group_3607" data-name="Group 3607">
      <g id="Group_3606" data-name="Group 3606" opacity="0.061">
        <g id="Group_3601" data-name="Group 3601">
          <g id="Group_925" data-name="Group 925" transform="translate(-208.633 759.896) rotate(9)">
            <g id="Group_924" data-name="Group 924">
              <path id="Path_4115" data-name="Path 4115" d="M100.962,415.965c36.944,11.3,65.3,35.5,92.11,62.339,25.808,25.837,51.374,53.054,84.972,68.772,69.263,32.4,150.639,15.972,218.481-11.811,75.805-31.043,147.021-77.758,229-91.385,40.2-6.682,83.214-3.473,118.227,18.977,29.007,18.6,44.729,48.062,51.282,81.176,3.721,18.81,5,37.924,6,57.059h8.772c-.278-5.424-.576-10.84-.952-16.23-2.18-31.332-6.445-63.888-22.915-91.3-18.708-31.135-51.861-50.9-86.952-58.092-42.818-8.768-87.228-.409-128.109,13.177-39.393,13.09-76.688,31.559-114.013,49.529-71.239,34.3-150.193,69.109-231.229,54.642a171.508,171.508,0,0,1-54.161-19.075c-16.579-9.341-31.172-21.609-44.92-34.672-26.9-25.562-51.255-54.611-83.383-73.957A181.537,181.537,0,0,0,31.391,400.423c-.057.005-.113.016-.172.021v8.981A173.461,173.461,0,0,1,100.962,415.965Z" transform="translate(-31.219 -399.434)"/>
            </g>
          </g>
          <g id="Group_926" data-name="Group 926" transform="translate(-204.563 734.199) rotate(9)">
            <path id="Path_4116" data-name="Path 4116" d="M148.06,561.089c84.772,31.667,178.131,1.753,241.523-28.922,32.617-15.784,64.395-34.507,95.126-52.616,39.783-23.439,80.919-47.677,124.193-65.7,42.235-17.595,149.4-52.6,232.092,2.162,47.568,31.5,80.632,89.626,98.275,172.751,1.659,7.822,3.161,15.738,4.607,23.666h1.8c-1.466-8.049-2.99-16.087-4.677-24.033-17.744-83.6-51.06-142.091-99.03-173.862-83.407-55.241-191.255-20.024-233.753-2.321-43.385,18.075-84.577,42.343-124.411,65.814-30.7,18.089-62.447,36.8-95,52.545-63.08,30.526-155.945,60.314-240.13,28.858-30-11.21-57.367-29.714-83.827-47.612-11.035-7.462-22.2-15-33.634-22.066v2.082c11.086,6.886,21.926,14.207,32.641,21.453C90.408,531.241,117.857,549.807,148.06,561.089Z" transform="translate(-31.219 -384.753)"/>
          </g>
        </g>
      </g>
      <g id="Group_930" data-name="Group 930" transform="translate(305 -110.502)" opacity="0.061">
        <g id="Group_928" data-name="Group 928" transform="translate(1241.74 84)">
          <g id="Group_927" data-name="Group 927">
            <path id="Path_4117" data-name="Path 4117" d="M713.409,293.273c-38.145-6.9-75.9-21.775-102.705-50.729-12.107-13.076-21.641-28.713-26.565-45.9-4.476-15.626-5.042-31.982-3.241-48.069,3.727-33.3,16.762-64.852,26.794-96.567C613.2,34.588,618.153,16.5,620.159-1.775h-8.837q-.372,3.182-.863,6.342c-5.336,33.939-19,65.862-28.693,98.647-9.266,31.334-15.438,65.164-5.756,97.192,10.675,35.312,38.319,63.351,70.507,80.159,37.133,19.388,79.782,25.619,121.2,26.912,45.691,1.427,91.233-3.521,136.769-6.392,19.386-1.223,39.212-1.983,59.067-1.683V290.33C880.176,289.139,796.35,308.279,713.409,293.273Z" transform="translate(-571.121 1.775)"/>
          </g>
        </g>
        <g id="Group_929" data-name="Group 929" transform="translate(462.624 84)">
          <path id="Path_4118" data-name="Path 4118" d="M1183.374,322.084q-12.257,1.2-24.64,2.479c-94.758,9.67-192.742,19.67-275.722-23.692-49.522-25.877-87.873-68.513-124.962-109.746-30.673-34.1-62.389-69.359-100.5-95.429C581.336,43.56,483.56,31.628,406.892,27.056c-19.445-1.159-39.29-1.979-58.483-2.772C281.281,21.51,211.868,18.643,146.275.738c-2.981-.813-5.9-1.655-8.775-2.513h-6.044q6.98,2.2,14.352,4.223c65.788,17.958,135.3,20.829,202.529,23.607,19.184.792,39.023,1.613,58.452,2.77,76.44,4.558,173.907,16.443,249.762,68.332,37.936,25.952,69.58,61.133,100.184,95.153,37.194,41.349,75.653,84.106,125.458,110.132,83.455,43.607,181.707,33.581,276.723,23.884q12.373-1.263,24.633-2.479c37.488-3.666,78.678-6.071,119.453-3.114v-1.779C1262.151,316,1220.911,318.41,1183.374,322.084Z" transform="translate(-131.455 1.775)"/>
        </g>
      </g>
    </g>
  </g>
</svg>
