<svg id="Group_4052" data-name="Group 4052" xmlns="http://www.w3.org/2000/svg" width="37.81" height="39.682" viewBox="0 0 37.81 39.682">
  <path id="Path_4292" data-name="Path 4292" d="M788.709-1148.574c-.143-.054-.288-.1-.429-.163a1.446,1.446,0,0,1-.909-1.785c.4-1.611.818-3.22,1.227-4.83.018-.073.026-.148.049-.278a4.171,4.171,0,0,1-3.668-.21,4.169,4.169,0,0,1-2.107-3.034c-.675,0-1.346-.03-2.014.006a2.866,2.866,0,0,1-2.991-2.991c.016-5.9,0-11.806.007-17.709a2.824,2.824,0,0,1,2.564-2.975.406.406,0,0,0,.252-.279c.074-.491.162-.6.663-.706.39-.082.78-.166,1.224-.261-.241-.377-.468-.73-.693-1.085a.645.645,0,0,1,.1-.988c.382-.385.771-.764,1.149-1.152a.632.632,0,0,1,.9-.1c.354.236.714.462,1.121.725.1-.453.195-.874.291-1.293.1-.451.258-.575.723-.577.568,0,1.137.006,1.705,0a.6.6,0,0,1,.658.526c.1.427.179.857.282,1.359l1.04-.677c.474-.309.658-.294,1.05.094s.765.769,1.152,1.15a.623.623,0,0,1,.086.871l-.739,1.135c.338.073.633.138.928.2.856.18.857.18.992,1.044h.412q7.306,0,14.611,0a.675.675,0,0,0,.624-.272,1.62,1.62,0,0,1,1.358-.621c1.189,0,2.377-.006,3.566,0a1.689,1.689,0,0,1,1.757,1.686c.03,1.239.028,2.48,0,3.72a1.7,1.7,0,0,1-1.45,1.67,1.715,1.715,0,0,1-1.846-1.037.847.847,0,0,0-.209-.261,2.055,2.055,0,0,1-.245.39q-3.981,3.993-7.972,7.976a1.194,1.194,0,0,1-1.993,0c-.847-.85-1.693-1.7-2.566-2.58-.124.117-.226.209-.323.306-1.471,1.47-2.933,2.95-4.416,4.408a1.689,1.689,0,0,1-2.853-.705,1.565,1.565,0,0,1,.342-1.592c.878-.911,1.779-1.8,2.68-2.691a.553.553,0,0,1,.829-.028.558.558,0,0,1-.016.857c-.778.793-1.568,1.574-2.353,2.36-.073.073-.15.143-.217.222a.5.5,0,0,0,.007.755.5.5,0,0,0,.758-.008c.189-.176.367-.364.55-.546q2.014-2.014,4.029-4.027a1.171,1.171,0,0,1,1.933,0c.867.865,1.731,1.731,2.654,2.655a4.315,4.315,0,0,1,.307-.388q4.423-4.428,8.85-8.852c.073-.073.148-.145.218-.22a.531.531,0,0,1,.7-.15,1.018,1.018,0,0,1,.353.585,4.053,4.053,0,0,1,.016.849.5.5,0,0,0,.505.563.5.5,0,0,0,.542-.565c.008-1.2,0-2.4,0-3.6a.5.5,0,0,0-.554-.558c-1.2-.01-2.4-.012-3.6,0a.485.485,0,0,0-.543.558.487.487,0,0,0,.557.5c.271,0,.543,0,.814,0a.6.6,0,0,1,.626.363.6.6,0,0,1-.172.7q-.7.7-1.4,1.4-3.138,3.137-6.276,6.275a1.187,1.187,0,0,1-1.966-.009q-1.165-1.164-2.331-2.327c-.08-.08-.166-.154-.286-.264-.584.593-1.153,1.172-1.726,1.748a.571.571,0,0,1-.742.105.533.533,0,0,1-.242-.67.83.83,0,0,1,.214-.313c.562-.571,1.125-1.141,1.7-1.7a1.11,1.11,0,0,1,1.655.008c.908.9,1.8,1.811,2.677,2.689l5.348-5.342c-.069-.005-.165-.018-.26-.018q-7.655,0-15.309,0a.513.513,0,0,0-.457.229,17.7,17.7,0,0,1-1.515,1.546.554.554,0,0,1-.717-.036c-.364-.239-.729-.476-1.136-.741-.1.478-.19.9-.278,1.324a.628.628,0,0,1-.673.564c-.581,0-1.163,0-1.744,0a.629.629,0,0,1-.684-.592c-.07-.4-.173-.8-.278-1.283-.351.224-.669.426-.985.63-.547.351-.715.343-1.167-.129s-.864-.948-1.3-1.418a.3.3,0,0,0-.2-.086c-.8-.006-1.6,0-2.427,0-.008.177-.019.315-.019.453q0,8.1,0,16.2a1.646,1.646,0,0,0,1.852,1.861h1.954a4.185,4.185,0,0,1,1.639-2.726,4.044,4.044,0,0,1,2.447-.835c2.032-.013,3.4,1.149,4.175,3.562h20.744a1.672,1.672,0,0,0,1.857-1.872q0-6.006,0-12.012c0-.608.17-.877.561-.891s.6.282.6.892q0,6.1,0,12.206a2.78,2.78,0,0,1-2.228,2.786,3.826,3.826,0,0,1-.808.056q-4.05.006-8.1,0h-.47c.218.861.424,1.683.633,2.5q.721,2.826,1.443,5.652a1.5,1.5,0,0,1-1.152,2.073c-.033.011-.058.045-.087.069h-.775a1.8,1.8,0,0,1-1.227-1.308c-.428-1.75-.882-3.494-1.328-5.24q-.476-1.866-.956-3.728h-1.88v.478c0,2.582-.024,5.165.012,7.746a1.9,1.9,0,0,1-1.211,2.052H796a1.921,1.921,0,0,1-1.179-2.067c.046-2.578.016-5.158.016-7.738v-.495c-.514,0-.989.022-1.461-.007-.333-.021-.462.093-.543.418-.689,2.757-1.418,5.5-2.09,8.264a1.943,1.943,0,0,1-1.331,1.624Zm-2.18-38.507c-.077.355-.156.705-.228,1.056a1.12,1.12,0,0,1-1.661.712c-.311-.2-.62-.4-.884-.57l-.685.627c.232.64,1,1.061.656,1.919-.347.878-1.208.637-1.847.94a4.079,4.079,0,0,1,0,.492c-.038.311.048.485.4.5a4.274,4.274,0,0,1,.681.138,1.123,1.123,0,0,1,.7,1.643c-.2.315-.4.625-.591.911l.658.692c.3-.194.6-.37.882-.576a.953.953,0,0,1,.913-.124,1.2,1.2,0,0,1,.848,1.08c.152.835.172.831,1.017.783a.331.331,0,0,0,.089-.041c.074-.339.152-.69.229-1.043a1.118,1.118,0,0,1,1.615-.695c.325.2.643.416.948.613l.687-.651c-.206-.317-.392-.625-.6-.917a.962.962,0,0,1-.113-.88,1.2,1.2,0,0,1,1.1-.869c.815-.148.811-.168.778-.983a.5.5,0,0,0-.034-.113c-.354-.079-.706-.16-1.059-.235a1.109,1.109,0,0,1-.684-1.642c.2-.313.4-.622.586-.9l-.653-.695c-.323.209-.633.416-.949.614a1.122,1.122,0,0,1-1.623-.683c-.081-.371-.166-.741-.246-1.1Zm22.05,5.742H793.306c-.06.78-.112.832-.884.987-.323.065-.645.141-.974.213a.5.5,0,0,0,.538.423q8.618-.015,17.236,0a.549.549,0,0,0,.574-.337A1.927,1.927,0,0,1,808.58-1181.339Zm-24.548,21.861a2.988,2.988,0,0,0,2.953,3,2.97,2.97,0,0,0,2.976-2.936,2.97,2.97,0,0,0-2.934-3.018A2.959,2.959,0,0,0,784.031-1159.478Zm17.08.646a1.5,1.5,0,0,0,.023.254q1.072,4.2,2.15,8.407a.506.506,0,0,0,.657.42c.35-.1.387-.33.3-.664-.662-2.551-1.31-5.106-1.959-7.66-.221-.87-.217-.872-1.115-.781A.3.3,0,0,0,801.111-1158.832Zm-9.838-.026c-.38.728-.717,1.371-1.052,2.016a1.017,1.017,0,0,0-.08.216q-.807,3.161-1.61,6.322a.414.414,0,0,0,.428.568c.326.015.478-.158.556-.468.425-1.7.863-3.391,1.3-5.087.3-1.182.606-2.363.915-3.568Zm4.74,0c-.008.13-.018.23-.018.33q0,4.1,0,8.2a1.078,1.078,0,0,0,.015.269.387.387,0,0,0,.64.2.749.749,0,0,0,.128-.459q.011-4.083,0-8.165c0-.123-.013-.245-.021-.375Zm-15.347-22.476a1.5,1.5,0,0,0-1.555,1.613c1.025,0,2.054.012,3.082-.015.124,0,.243-.215.425-.386-.419-.092-.717-.162-1.018-.223C780.794-1180.511,780.773-1180.531,780.667-1181.338Z" transform="translate(-777.869 1188.255)"/>
  <path id="Path_4293" data-name="Path 4293" d="M858.188-940.794c.929,0,1.858,0,2.787,0,.565,0,.76.2.763.775,0,.632.005,1.264,0,1.9,0,.529-.227.75-.76.751q-2.806,0-5.612,0c-.513,0-.733-.222-.736-.728q-.007-.987,0-1.974c0-.515.206-.716.734-.719C856.3-940.8,857.246-940.794,858.188-940.794Zm-2.366,2.221h4.7v-1.01h-4.7Z" transform="translate(-850.136 955.265)"/>
  <path id="Path_4294" data-name="Path 4294" d="M1148.982-772.056q2.69,0,5.38,0c.5,0,.793.345.653.761a.61.61,0,0,1-.672.4c-1.69-.008-3.38,0-5.07,0-1.922,0-3.844,0-5.767,0-.313,0-.57-.128-.6-.421a.982.982,0,0,1,.234-.632c.076-.1.306-.1.468-.105C1145.4-772.058,1147.188-772.056,1148.982-772.056Z" transform="translate(-1121.553 796.393)"/>
  <path id="Path_4295" data-name="Path 4295" d="M1223-815.758h3.175a.561.561,0,0,1,.6.437.526.526,0,0,1-.248.634.775.775,0,0,1-.366.091q-3.213.008-6.427,0a.56.56,0,0,1-.624-.583.57.57,0,0,1,.633-.577C1220.83-815.762,1221.914-815.758,1223-815.758Z" transform="translate(-1193.311 837.541)"/>
  <path id="Path_4296" data-name="Path 4296" d="M857.3-863.6c-.632,0-1.263,0-1.895,0-.422,0-.682-.225-.692-.565-.01-.357.264-.6.7-.6q1.915-.005,3.829,0c.416,0,.679.227.688.571.01.368-.242.593-.694.6C858.588-863.595,857.943-863.6,857.3-863.6Z" transform="translate(-850.218 883.688)"/>
  <path id="Path_4297" data-name="Path 4297" d="M894.215-1118.009a2.476,2.476,0,0,1-2.433-2.495,2.5,2.5,0,0,1,2.5-2.44,2.5,2.5,0,0,1,2.439,2.5A2.487,2.487,0,0,1,894.215-1118.009Zm1.31-2.467a1.253,1.253,0,0,0-1.274-1.272,1.276,1.276,0,0,0-1.295,1.263,1.316,1.316,0,0,0,1.306,1.307A1.286,1.286,0,0,0,895.524-1120.476Z" transform="translate(-885.12 1126.763)"/>
  <path id="Path_4298" data-name="Path 4298" d="M923.686-717.677c0-.232-.01-.464,0-.7a.592.592,0,0,1,.6-.625.564.564,0,0,1,.581.593c.021.514.022,1.031,0,1.545a.554.554,0,0,1-.587.584.588.588,0,0,1-.591-.59c0-.026,0-.052,0-.077Q923.686-717.31,923.686-717.677Z" transform="translate(-915.156 746.438)"/>
</svg>
