<svg xmlns="http://www.w3.org/2000/svg" width="18.59" height="18.588" viewBox="0 0 18.59 18.588">
  <g id="Group_3857" data-name="Group 3857" transform="translate(-3324.32 -1316.375)">
    <path id="Path_4247" data-name="Path 4247" d="M3324.32,1333.328v-16.953h14.195v1.748a10.138,10.138,0,0,1,4.368-.7c.007.067.015.114.017.161a10.252,10.252,0,0,1-.328,3.052,6.48,6.48,0,0,1-3.942,4.693c-.123.05-.119.127-.119.225q0,2.2,0,4.392c0,.058.006.117.01.2h2.128c0,1.031.031,2.041-.009,3.049a1.882,1.882,0,0,1-1.884,1.77q-6.27,0-12.54,0a1.828,1.828,0,0,1-1.708-1.087A4.163,4.163,0,0,1,3324.32,1333.328Zm1.088-15.859v15.423c0,.061,0,.121,0,.182a.825.825,0,1,0,1.647-.08c0-.877,0-1.755,0-2.632v-.231h10.347v-4.4a11.079,11.079,0,0,1-2.288.311.321.321,0,0,0-.179.1c-.256.249-.508.5-.759.756-.181.183-.36.369-.515.529l-.794-.79c.152-.145.319-.3.483-.462s.322-.312.473-.476a2.212,2.212,0,0,0,.467-.535h-6.651v-1.1h6.4c.3,0,.3,0,.353-.291.068-.348.138-.695.211-1.065h-6.97v-1.081h.225q3.476,0,6.952,0a.221.221,0,0,0,.248-.146,6.1,6.1,0,0,1,2.25-2.732c.042-.027.1-.076.1-.116.007-.391,0-.782,0-1.179Zm2.571,16.394c.058,0,.1.009.139.009q5.288,0,10.576,0a.811.811,0,0,0,.86-.8c.02-.6,0-1.209,0-1.813,0-.01-.014-.019-.017-.023h-11.375c0,.238.008.462,0,.685A5.011,5.011,0,0,1,3327.979,1333.864Zm13.839-15.352a9.2,9.2,0,0,0-2.484.479,5.273,5.273,0,0,0-2.7,1.927,7.043,7.043,0,0,0-1.1,2.753c-.021.1-.03.212-.045.318l.055.026,3.064-3.075.8.791-3.141,3.139c.508-.13.981-.227,1.439-.374a5.25,5.25,0,0,0,2.906-2.077,7.017,7.017,0,0,0,1.023-2.651C3341.711,1319.363,3341.756,1318.95,3341.818,1318.512Z"/>
    <path id="Path_4248" data-name="Path 4248" d="M3400.323,1374.964v1.064h-7.551v-1.064Z" transform="translate(-65.132 -55.747)"/>
    <path id="Path_4249" data-name="Path 4249" d="M3392.7,1526.886v-1.08h3.767v1.08Z" transform="translate(-65.064 -199.274)"/>
  </g>
</svg>
