<svg xmlns="http://www.w3.org/2000/svg" width="19.991" height="19.989" viewBox="0 0 19.991 19.989">
  <g id="Group_3858" data-name="Group 3858" transform="translate(-3324.32 -1316.375)">
    <path id="Path_4247" data-name="Path 4247" d="M3324.32,1334.607v-18.232h15.265v1.88a10.9,10.9,0,0,1,4.7-.753c.008.072.015.123.018.174a11.029,11.029,0,0,1-.353,3.282,6.968,6.968,0,0,1-4.239,5.046c-.133.053-.128.137-.128.242q0,2.362,0,4.723c0,.063.006.125.01.21h2.289c0,1.108.033,2.195-.009,3.279a2.024,2.024,0,0,1-2.026,1.9q-6.743,0-13.485,0a1.966,1.966,0,0,1-1.836-1.169A4.646,4.646,0,0,1,3324.32,1334.607Zm1.17-17.054v16.586c0,.065,0,.13,0,.2a.887.887,0,1,0,1.771-.086c0-.943,0-1.887,0-2.83v-.248h11.126v-4.726a11.891,11.891,0,0,1-2.46.334.348.348,0,0,0-.193.111c-.275.268-.545.54-.816.813-.195.2-.386.4-.553.568l-.854-.85c.163-.156.343-.324.52-.5s.346-.335.509-.512a2.378,2.378,0,0,0,.5-.575h-7.153v-1.178h6.885c.32,0,.319,0,.379-.312.073-.374.148-.747.228-1.145h-7.5v-1.163h.242q3.738,0,7.476,0a.237.237,0,0,0,.267-.156,6.561,6.561,0,0,1,2.419-2.939c.045-.029.105-.082.106-.124.008-.421,0-.841,0-1.268Zm2.764,17.63c.063,0,.106.01.149.01q5.687,0,11.374,0a.872.872,0,0,0,.925-.859c.021-.65,0-1.3,0-1.95,0-.01-.015-.021-.019-.025h-12.233c0,.255.008.5,0,.736A5.389,5.389,0,0,1,3328.255,1335.183Zm14.882-16.509a9.9,9.9,0,0,0-2.671.515,5.67,5.67,0,0,0-2.9,2.072,7.571,7.571,0,0,0-1.182,2.961c-.022.113-.032.228-.048.342l.059.028,3.3-3.306.859.851-3.378,3.376c.547-.14,1.056-.244,1.547-.4a5.643,5.643,0,0,0,3.125-2.234,7.538,7.538,0,0,0,1.1-2.851C3343.023,1319.588,3343.071,1319.145,3343.137,1318.674Z" transform="translate(0)" fill="#ff6782"/>
    <path id="Path_4248" data-name="Path 4248" d="M3400.892,1374.964v1.144h-8.12v-1.144Z" transform="translate(-64.882 -55.533)" fill="#ff6782"/>
    <path id="Path_4249" data-name="Path 4249" d="M3392.7,1526.968v-1.162h4.052v1.162Z" transform="translate(-64.815 -198.508)" fill="#ff6782"/>
  </g>
</svg>
