<svg xmlns="http://www.w3.org/2000/svg" width="17.902" height="17.904" viewBox="0 0 17.902 17.904">
  <g id="Group_3830" data-name="Group 3830" transform="translate(-3866.699 -1798.997)">
    <path id="Path_4236" data-name="Path 4236" d="M3874.251,1816.9H3866.7v-12.239a.292.292,0,0,0,.029-.062,2.084,2.084,0,0,1,2.115-1.756h.514c0-.6,0-1.184,0-1.766a2.086,2.086,0,0,1,2.079-2.079q4.212-.006,8.424,0a2.086,2.086,0,0,1,2.082,2.076c0,.524,0,1.049,0,1.573v.2c.221,0,.418-.007.615,0a2.251,2.251,0,0,1,.431.055,2.081,2.081,0,0,1,1.611,2.06q0,5.969,0,11.938h-7.552v-2.856h-2.8Zm6.294-1.406v-14.276a.73.73,0,0,0-.832-.823h-8.128a.73.73,0,0,0-.832.823v14.27h2.107v-2.84h5.59v2.846Zm-11.2,0v-11.253h-.412a.733.733,0,0,0-.837.834V1815.5Zm13.857,0v-10.428c0-.052,0-.105,0-.157a.691.691,0,0,0-.634-.657c-.2-.02-.4,0-.613,0V1815.5Z" transform="translate(0 0)"/>
    <path id="Path_4237" data-name="Path 4237" d="M4026.2,1856.528h1.4v1.387h-1.386v1.4h-1.394v-1.386h-1.4v-1.394h1.386v-1.4h1.394Z" transform="translate(-149.856 -53.679)"/>
    <path id="Path_4238" data-name="Path 4238" d="M3991.552,1982.864h1.376v1.376h-1.376Z" transform="translate(-119.386 -175.815)"/>
    <path id="Path_4239" data-name="Path 4239" d="M4056.736,1984.38h-1.375v-1.375h1.375Z" transform="translate(-180.401 -175.95)"/>
    <path id="Path_4240" data-name="Path 4240" d="M4120.713,1982.966v1.376h-1.375v-1.376Z" transform="translate(-241.576 -175.912)"/>
    <path id="Path_4241" data-name="Path 4241" d="M3991.451,2048.151v-1.376h1.375v1.376Z" transform="translate(-119.289 -236.927)"/>
    <path id="Path_4242" data-name="Path 4242" d="M4056.819,2048.215h-1.369v-1.382h1.369Z" transform="translate(-180.486 -236.983)"/>
    <path id="Path_4243" data-name="Path 4243" d="M4120.691,2048.2h-1.375v-1.378h1.375Z" transform="translate(-241.555 -236.974)"/>
  </g>
</svg>
