<svg id="Group_4063" data-name="Group 4063" xmlns="http://www.w3.org/2000/svg" width="37.143" height="39.559" viewBox="0 0 37.143 39.559">
  <path id="Path_4306" data-name="Path 4306" d="M243.2-1011.3v-2.429a5.307,5.307,0,0,1,3.03.528,5,5,0,0,1,2.789,4.441c.079,2.982.04,5.967.049,8.95.013,4.608.033,9.215.026,13.823a12,12,0,0,1-.2,2.674,4.952,4.952,0,0,1-4.876,3.831q-9.385.031-18.77,0a5.111,5.111,0,0,1-5-4.113,2.605,2.605,0,0,1-.027-.274h2.454c.016.034.064.153.124.267a2.834,2.834,0,0,0,2.734,1.657c6.125-.025,12.25-.009,18.374-.014a2.718,2.718,0,0,0,2.816-2.365,8.617,8.617,0,0,0,.075-1.421q.007-8.159,0-16.318c0-2.126-.06-4.251-.036-6.376a2.772,2.772,0,0,0-2.943-2.862C243.628-1011.284,243.431-1011.3,243.2-1011.3Z" transform="translate(-211.957 1019.023)"/>
  <path id="Path_4307" data-name="Path 4307" d="M116.047-924.558c0-.3-.027-.807.005-1.307a2.38,2.38,0,0,1,2.311-2.364,12.656,12.656,0,0,0,5.874-1.8,9.566,9.566,0,0,1,.851-.5,2.344,2.344,0,0,1,2.5.234,10.734,10.734,0,0,0,4.249,1.833,12.268,12.268,0,0,0,1.808.139,2.475,2.475,0,0,1,2.435,2.35A19.4,19.4,0,0,1,133.6-915.84a16.336,16.336,0,0,1-5.83,5.8c-.2.121-.394.262-.592.392a2.311,2.311,0,0,1-2.377.072,14.261,14.261,0,0,1-8.172-9.927A19.058,19.058,0,0,1,116.047-924.558Zm2.2.391-.105.014c.173,1.3.274,2.624.531,3.911a11.711,11.711,0,0,0,7.089,8.676.642.642,0,0,0,.5.019,14.45,14.45,0,0,0,4.916-4.45,17.305,17.305,0,0,0,2.708-9.607c.008-.333-.174-.423-.472-.439a15.56,15.56,0,0,1-1.691-.139,12.957,12.957,0,0,1-5.158-2.1.663.663,0,0,0-.818.006,27.76,27.76,0,0,1-2.82,1.5,12.473,12.473,0,0,1-4.2.87c-.351.023-.5.168-.486.516C118.261-924.986,118.251-924.576,118.251-924.167Z" transform="translate(-116.036 942.635)"/>
  <path id="Path_4308" data-name="Path 4308" d="M326.523-1076.166a3.992,3.992,0,0,1,1.515-3.17,3.789,3.789,0,0,1,2.461-.834,3.949,3.949,0,0,1,3.876,4c.35,0,.7,0,1.054,0a1.948,1.948,0,0,1,1.877,1.876c.01.541,0,1.082,0,1.624a1.8,1.8,0,0,1-1.958,1.941c-2.27.005-4.54,0-6.81,0-.977,0-1.953,0-2.93,0a1.812,1.812,0,0,1-1.975-1.964c0-.515,0-1.03,0-1.545a1.784,1.784,0,0,1,1.917-1.936C325.865-1076.168,326.179-1076.166,326.523-1076.166Zm1.874-.031h4.09a1.88,1.88,0,0,0-.971-1.835,2,2,0,0,0-2.269.073A1.843,1.843,0,0,0,328.4-1076.2Z" transform="translate(-307.162 1080.17)"/>
  <path id="Path_4309" data-name="Path 4309" d="M304.226-693.184c.532-.584,1.092-1.208,1.668-1.817.064-.068.219-.067.333-.067q6.708,0,13.416,0a.955.955,0,0,1,1.051.937.951.951,0,0,1-1.04.948q-4.908,0-9.815,0h-5.612Z" transform="translate(-289.291 725.624)"/>
  <path id="Path_4310" data-name="Path 4310" d="M356.005-761.053c.255-.584.485-1.143.748-1.687a.472.472,0,0,1,.346-.226q5.127-.017,10.253-.005a1.023,1.023,0,0,1,1.016,1.005.944.944,0,0,1-.968.945q-5.641.011-11.283,0A.582.582,0,0,1,356.005-761.053Z" transform="translate(-336.966 788.141)"/>
  <path id="Path_4311" data-name="Path 4311" d="M378.947-828.111l.316-1.906c.119-.008.234-.021.349-.021,2.9,0,5.808-.011,8.712.011a1.657,1.657,0,0,1,.856.31.805.805,0,0,1,.276.928.9.9,0,0,1-.713.667,1.67,1.67,0,0,1-.352.039q-4.574,0-9.147,0C379.154-828.083,379.065-828.1,378.947-828.111Z" transform="translate(-358.088 849.887)"/>
  <path id="Path_4312" data-name="Path 4312" d="M376.822-897.9c.062,0,.15-.015.238-.015q4.71,0,9.421,0a.961.961,0,0,1,1.01.665.918.918,0,0,1-.353,1.085,1.352,1.352,0,0,1-.665.2c-2.916.013-5.832.006-8.748.012-.225,0-.3-.07-.357-.3C377.221-896.8,377.011-897.336,376.822-897.9Z" transform="translate(-356.132 912.371)"/>
  <path id="Path_4313" data-name="Path 4313" d="M222.056-1008.365h-2.272a5.012,5.012,0,0,1,5.718-4.664v2.356a3.689,3.689,0,0,0-2.218.424A2.829,2.829,0,0,0,222.056-1008.365Z" transform="translate(-211.553 1018.39)"/>
  <path id="Path_4314" data-name="Path 4314" d="M184.447-833.767a1.077,1.077,0,0,1-.974-.51c-.574-.959-1.128-1.932-1.67-2.91a1.8,1.8,0,0,1-.2-.677.63.63,0,0,1,.124-.494.626.626,0,0,1,.542-.04,7.09,7.09,0,0,1,1.035.648c.341.247.667.518.982.8a.355.355,0,0,0,.54.032c1.16-.913,2.318-1.829,3.5-2.709.686-.509,1.411-.97,2.144-1.41.164-.1.434-.02.655-.023a1.563,1.563,0,0,1-.064.54,3.6,3.6,0,0,1-.538.777q-2.534,2.75-5.088,5.481A1.246,1.246,0,0,1,184.447-833.767Z" transform="translate(-176.398 860.056)"/>
</svg>
