<svg id="Group_3802" data-name="Group 3802" xmlns="http://www.w3.org/2000/svg" width="14.43" height="12.732" viewBox="0 0 14.43 12.732">
  <path id="Path_4232" data-name="Path 4232" d="M83.441,248.481a3.183,3.183,0,1,0-3.511,0,5.1,5.1,0,0,0-3.337,4.775h.849a4.244,4.244,0,1,1,8.488,0h.849A5.1,5.1,0,0,0,83.441,248.481Zm-1.756-.318a2.334,2.334,0,1,1,2.334-2.334A2.337,2.337,0,0,1,81.686,248.162Z" transform="translate(-76.593 -240.523)" fill="#ff6782"/>
  <path id="Path_4233" data-name="Path 4233" d="M127.11,233.681a3.18,3.18,0,1,0-4.493-4.268,4.028,4.028,0,0,1,.75.4,2.348,2.348,0,0,1,.57-.632,2.33,2.33,0,1,1,1.418,4.184c-.075,0-.149,0-.222-.011a4.005,4.005,0,0,1-.143.886c.121-.01.241-.026.365-.026a4.271,4.271,0,0,1,4.244,4.244h.849A5.1,5.1,0,0,0,127.11,233.681Z" transform="translate(-116.018 -227.845)"/>
</svg>
