<svg xmlns="http://www.w3.org/2000/svg" width="20" height="20" viewBox="0 0 20 20">
  <g id="Group_4277" data-name="Group 4277" transform="translate(507 -180)">
    <path id="Path_4526" data-name="Path 4526" d="M-505.594,180h9.765c.049.014.1.033.147.042a2.48,2.48,0,0,1,2,2.252c.034.721.016,1.444.019,2.166a6.607,6.607,0,0,1-.016.663.8.8,0,0,1-.686.7.83.83,0,0,1-.969-.9c0-.781,0-1.562,0-2.343a.826.826,0,0,0-.908-.908h-3.475c-.055,0-.11,0-.165.008l-.005.027.063.026a1.691,1.691,0,0,1,1.165,1.749q0,6.033,0,12.066v.272h2.608a.375.375,0,0,0,.095-.019.839.839,0,0,0,.623-.9c0-1.067,0-2.135,0-3.2a.838.838,0,0,1,.832-.874.824.824,0,0,1,.833.831c.01,1.171.032,2.344-.014,3.514a2.453,2.453,0,0,1-2.488,2.327q-1.132,0-2.265,0h-.227c0,.275,0,.528,0,.78a1.626,1.626,0,0,1-.75,1.439,4.075,4.075,0,0,1-.633.281h-.586l-.234-.08c-1.659-.553-3.32-1.1-4.976-1.66a1.635,1.635,0,0,1-1.121-1.241.27.27,0,0,0-.036-.065V181.406c.015-.049.032-.1.046-.146a1.652,1.652,0,0,1,.925-1.106C-505.89,180.09-505.739,180.051-505.594,180Z" transform="translate(0 0)"/>
    <path id="Path_4527" data-name="Path 4527" d="M-289.87,264.242a4.474,4.474,0,0,1-.416.577c-1.033,1.047-2.075,2.085-3.117,3.123a.836.836,0,0,1-1.246.017.826.826,0,0,1-.222-.586c0-.813,0-1.626,0-2.472h-.212q-1.533,0-3.065,0a.848.848,0,0,1-.863-.624.825.825,0,0,1,.794-1.047c1.035,0,2.07,0,3.1,0h.242v-.215c0-.748,0-1.5,0-2.245a.8.8,0,0,1,.506-.8.8.8,0,0,1,.932.189q1.659,1.655,3.311,3.316a2.223,2.223,0,0,1,.251.384Z" transform="translate(-197.13 -75.727)"/>
  </g>
</svg>
