<svg xmlns="http://www.w3.org/2000/svg" xmlns:xlink="http://www.w3.org/1999/xlink" width="26" height="26" viewBox="0 0 26 26">
  <defs>
    <clipPath id="clip-path">
      <rect id="Rectangle_42" data-name="Rectangle 42" width="26" height="26" rx="5" transform="translate(634 724)" fill="#ff6782"/>
    </clipPath>
  </defs>
  <g id="Mask_Group_1" data-name="Mask Group 1" transform="translate(-634 -724)" clip-path="url(#clip-path)">
    <g id="Layer_2" data-name="Layer 2" transform="translate(634.019 724)">
      <g id="Layer_1" data-name="Layer 1">
        <path id="Path_4191" data-name="Path 4191" d="M13.082.063c.338,0,.676-.008,1.013,0a1.052,1.052,0,1,1-.028,2.1,13.06,13.06,0,0,0-3.65.327,10.46,10.46,0,0,0-7.96,8.171,10.789,10.789,0,1,0,21.151,4.249,11.029,11.029,0,0,0-.026-3.89,1.078,1.078,0,0,1,.889-1.288,1.1,1.1,0,0,1,1.282.987,12.6,12.6,0,0,1-1.125,8.008,12.567,12.567,0,0,1-9.49,7.081A12.964,12.964,0,0,1,10.466.306C11.322.136,12.2.1,13.073,0Z"/>
        <path id="Path_4192" data-name="Path 4192" d="M11.9,18.373a10.884,10.884,0,0,1-1.34-.475A3.126,3.126,0,0,1,8.67,15.191a1.074,1.074,0,0,1,2.145-.136.944.944,0,0,0,.565.821,3.593,3.593,0,0,0,3.19,0c.758-.381.734-.914.067-1.395a3.394,3.394,0,0,0-1.742-.431,8.8,8.8,0,0,1-2.008-.361A3.684,3.684,0,0,1,9.52,12.8a2.763,2.763,0,0,1,.361-4.292A4.106,4.106,0,0,1,11.9,7.7V6.569a1.082,1.082,0,1,1,2.161-.015V7.688A4.109,4.109,0,0,1,16.07,8.5a2.943,2.943,0,0,1,1.23,2.264,1.078,1.078,0,0,1-2.151.134.979.979,0,0,0-.647-.873,4,4,0,0,0-3.022-.014.881.881,0,0,0-.644.794.845.845,0,0,0,.66.812c.524.143,1.075.191,1.613.283a19.311,19.311,0,0,1,1.978.361,3.1,3.1,0,0,1,1.591,1.146,2.877,2.877,0,0,1-1.094,4.407,7.536,7.536,0,0,1-1.269.434c-.175.051-.271.1-.257.309.019.3.008.607,0,.911a1.083,1.083,0,1,1-2.157,0C11.9,19.094,11.9,18.722,11.9,18.373Z"/>
        <path id="Path_4193" data-name="Path 4193" d="M19.512,3.867c.306-.317.574-.6.85-.88q1.272-1.281,2.554-2.56a1.109,1.109,0,0,1,1.64-.115,1.12,1.12,0,0,1-.11,1.666L21.311,5.1c-.084.084-.161.173-.292.312h1.608a1.086,1.086,0,1,1,0,2.165h-4.15A1.077,1.077,0,0,1,17.31,6.429V2.209a1.079,1.079,0,1,1,2.157,0c0,.517,0,1.035.008,1.552a.787.787,0,0,0,.037.106Z"/>
      </g>
    </g>
  </g>
</svg>
