<svg xmlns="http://www.w3.org/2000/svg" xmlns:xlink="http://www.w3.org/1999/xlink" width="26" height="26" viewBox="0 0 26 26">
  <defs>
    <clipPath id="clip-path">
      <rect id="Rectangle_42" data-name="Rectangle 42" width="26" height="26" rx="5" transform="translate(634 511)"/>
    </clipPath>
  </defs>
  <g id="Mask_Group_3" data-name="Mask Group 3" transform="translate(-634 -511)" clip-path="url(#clip-path)">
    <g id="Layer_2" data-name="Layer 2" transform="translate(633.999 511.005)">
      <g id="Layer_1" data-name="Layer 1">
        <path id="Path_4197" data-name="Path 4197" d="M26,13.578a5.642,5.642,0,0,1-.262.569,2.326,2.326,0,0,1-2.015,1.212c-.142.005-.285,0-.466,0v.318c0,2.552.009,5.1-.01,7.651a2.771,2.771,0,0,1-2.669,2.654c-1.423.014-2.847.007-4.271,0a.768.768,0,0,1-.78-.844c0-1.957-.022-3.915.01-5.87a1.352,1.352,0,0,0-1.446-1.453c-.72.025-1.441.02-2.161,0a1.337,1.337,0,0,0-1.41,1.41c.029,1.948.011,3.9.01,5.846a.8.8,0,0,1-.919.912H5.7a2.785,2.785,0,0,1-2.9-2.894c-.008-2.466,0-4.931,0-7.4v-.3a8.055,8.055,0,0,1-.877-.084A2.266,2.266,0,0,1,.127,13.7,2.314,2.314,0,0,1,.65,11.336c.073-.082.153-.159.231-.236Q5.888,6.094,10.891,1.086A3.8,3.8,0,0,1,12.42,0h1.221a3.74,3.74,0,0,1,1.478,1.034q4.862,4.878,9.74,9.741A3.98,3.98,0,0,1,26,12.358ZM17.062,24.461h3.252a1.3,1.3,0,0,0,1.417-1.423V14.675a.773.773,0,0,1,.837-.84c.364,0,.729,0,1.093,0a.854.854,0,0,0,.828-.661.991.991,0,0,0-.4-1Q18.943,7.035,13.8,1.893a.918.918,0,0,0-1.538-.006L3.078,11.072c-.431.431-.868.858-1.291,1.3a.8.8,0,0,0-.174.938.832.832,0,0,0,.8.527c.331.007.664,0,.992,0,.642,0,.926.286.926.931v8.289a1.3,1.3,0,0,0,1.4,1.409h3c.081,0,.161-.009.261-.015V24.1c.005-1.745-.014-3.491.023-5.236a2.68,2.68,0,0,1,2.345-2.521,20.3,20.3,0,0,1,3.121-.03,2.743,2.743,0,0,1,2.575,2.9c.007,1.644,0,3.288,0,4.932Z"/>
      </g>
    </g>
  </g>
</svg>
