<svg xmlns="http://www.w3.org/2000/svg" xmlns:xlink="http://www.w3.org/1999/xlink" width="26" height="26" viewBox="0 0 26 26">
  <defs>
    <clipPath id="clip-path">
      <rect id="Rectangle_42" data-name="Rectangle 42" width="26" height="26" rx="5" transform="translate(634 773)"/>
    </clipPath>
  </defs>
  <g id="Mask_Group_5" data-name="Mask Group 5" transform="translate(-634 -773)" clip-path="url(#clip-path)">
    <g id="Layer_2" data-name="Layer 2" transform="translate(634 773.043)">
      <g id="Layer_1" data-name="Layer 1">
        <path id="Path_4199" data-name="Path 4199" d="M3.706,25.912a5.762,5.762,0,0,1-.949-.391,2.27,2.27,0,0,1-1.126-2.008c-.011-3.248,0-6.494,0-9.744a.812.812,0,1,1,1.623,0v9.515c0,.7.3,1.008,1,1.008H8.125V15.468A2.424,2.424,0,0,1,10.67,12.92h4.7a2.42,2.42,0,0,1,2.5,2.513v8.842c.1,0,.181.012.262.012h3.655a.845.845,0,0,0,.958-.949q0-6.8,0-13.6a.449.449,0,0,0-.184-.383Q18.1,5.644,13.636,1.924a.844.844,0,0,0-1.288.008q-5.4,4.5-10.8,8.992a1.616,1.616,0,0,1-.65.354c-.435.092-.694-.2-.9-.542v-.457a3.264,3.264,0,0,1,.4-.51Q5.88,5.19,11.372.624A2.431,2.431,0,0,1,14.617.618q2.48,2.058,4.95,4.123c.1.083.2.163.334.271V3.657a.814.814,0,1,1,1.623-.01c0,.837-.006,1.675.007,2.509a.511.511,0,0,0,.155.339c.444.391.9.763,1.359,1.142.881.736,1.772,1.467,2.648,2.212A.8.8,0,0,1,25.8,11a.818.818,0,0,1-1.157.094l-.28-.212V23.46a2.419,2.419,0,0,1-1.5,2.266c-.186.075-.383.123-.575.183Zm12.531-1.633c0-.062.009-.095.009-.128V15.424a.826.826,0,0,0-.894-.881q-2.321,0-4.643,0a.846.846,0,0,0-.961.967v8.769Z"/>
        <path id="Path_4200" data-name="Path 4200" d="M12.18,20.226a.814.814,0,1,1,.814-.794A.8.8,0,0,1,12.18,20.226Z"/>
      </g>
    </g>
  </g>
</svg>
