<svg xmlns="http://www.w3.org/2000/svg" xmlns:xlink="http://www.w3.org/1999/xlink" width="26" height="26" viewBox="0 0 26 26">
  <defs>
    <clipPath id="clip-path">
      <rect id="Rectangle_42" data-name="Rectangle 42" width="26" height="26" rx="5" transform="translate(634 652)"/>
    </clipPath>
  </defs>
  <g id="Mask_Group_4" data-name="Mask Group 4" transform="translate(-634 -652)" clip-path="url(#clip-path)">
    <g id="Layer_2" data-name="Layer 2" transform="translate(634.015 652)">
      <g id="Layer_1" data-name="Layer 1">
        <path id="Path_4198" data-name="Path 4198" d="M6.552,13.492A8.277,8.277,0,0,1,18.024,1.718,8.089,8.089,0,0,1,21.2,7.338a8.115,8.115,0,0,1-1.761,6.117c.791.6,1.613,1.143,2.331,1.8A12.494,12.494,0,0,1,25.8,22.685a17.8,17.8,0,0,1,.173,2.035A1.171,1.171,0,0,1,24.84,26,1.217,1.217,0,0,1,23.6,24.806a18.374,18.374,0,0,0-.177-1.9,10.337,10.337,0,0,0-4.819-7.1c-.3-.187-.615-.333-.914-.518a.34.34,0,0,0-.4.021,8.1,8.1,0,0,1-8.625-.007.318.318,0,0,0-.349-.018,10.42,10.42,0,0,0-5.767,7.56,14.947,14.947,0,0,0-.18,1.9,1.235,1.235,0,0,1-.887,1.2A1.17,1.17,0,0,1,0,24.8a12.457,12.457,0,0,1,.967-4.954,12.76,12.76,0,0,1,5.372-6.2c.055-.033.111-.066.166-.1C6.52,13.539,6.528,13.521,6.552,13.492Zm6.426.676a5.894,5.894,0,1,0-4.173-1.736,5.9,5.9,0,0,0,4.173,1.736Z"/>
      </g>
    </g>
  </g>
</svg>
