<svg xmlns="http://www.w3.org/2000/svg" width="49.458" height="49.49" viewBox="0 0 49.458 49.49">
  <g id="Group_4504" data-name="Group 4504" transform="translate(-4254.468 520.183)">
    <path id="Path_4604" data-name="Path 4604" d="M4296.845-494.625h-.706q-15.417,0-30.834,0a4.777,4.777,0,0,1-4.995-4.265c-.439-4.775.351-9.282,3.591-13.085a.636.636,0,0,0,.011-.566q-1.05-2.007-2.15-3.987a1.519,1.519,0,0,1,.01-1.824,1.477,1.477,0,0,1,1.771-.422c.572.18,1.155.322,1.728.5a.575.575,0,0,0,.683-.171c.393-.432.815-.837,1.235-1.244a1.419,1.419,0,0,1,2.27.162c.251.322.5.65.8,1.049.4-.413.754-.8,1.129-1.174a1.433,1.433,0,0,1,2.34.163c.292.38.576.766.894,1.189.49-.24.961-.474,1.435-.7a1.451,1.451,0,0,1,1.724.156,1.44,1.44,0,0,1,.317,1.739c-.6,1.479-1.19,2.959-1.812,4.428a.911.911,0,0,0,.07.985c.393.6.678,1.269,1.033,1.9a.614.614,0,0,0,.391.311c1.01.026,2.021.014,3.09.014v-.59q0-4.126,0-8.252c0-.794.259-1.059,1.037-1.059q3.918,0,7.837,0c.749,0,1.021.272,1.021,1.023q0,5.157,0,10.315v.549l.11.065c.533-.546,1.062-1.1,1.6-1.636.58-.582.95-.582,1.53,0q3.12,3.115,6.238,6.232c.313.311.544.634.363,1.09a.888.888,0,0,1-1.018.518c-.169-.011-.339,0-.542,0v3.42a10.371,10.371,0,0,1,2.156.008,3.031,3.031,0,0,1,2.285,3.518,26.407,26.407,0,0,1-1.986,7.267,21.7,21.7,0,0,1-15.923,12.589,22.438,22.438,0,0,1-4.345.411c-5.946.044-11.893.018-17.84.019h-.681c0,.54,0,1.048,0,1.557a1.627,1.627,0,0,1-1.734,1.743q-2.4.007-4.8,0a1.617,1.617,0,0,1-1.715-1.709q0-9.025,0-18.051a1.616,1.616,0,0,1,1.682-1.688q2.449-.01,4.9,0a1.611,1.611,0,0,1,1.663,1.657c.007.548,0,1.1,0,1.711.18-.091.314-.151.441-.225a22.632,22.632,0,0,1,11.578-3.146q5.62,0,11.24,0c2.5,0,3.531.639,4.642,2.913.383-.159.772-.317,1.158-.482.993-.425,1.987-.849,2.975-1.286a.9.9,0,0,0,.435-.318C4295.737-492.381,4296.263-493.457,4296.845-494.625Zm-34.13,18.983h.689c5.773,0,11.546.009,17.32-.009a26.332,26.332,0,0,0,3.235-.192,20,20,0,0,0,12.722-6.732,21.558,21.558,0,0,0,5.176-12.106,1.428,1.428,0,0,0-.893-1.48,1.432,1.432,0,0,0-1.879.8c-.837,1.653-1.642,3.323-2.5,4.962a1.874,1.874,0,0,1-.821.773c-1.511.692-3.045,1.334-4.578,1.978a.814.814,0,0,0-.563.633,4.055,4.055,0,0,1-3.979,3.117q-6.366.008-12.732,0c-.147,0-.295-.019-.438-.029v-1.616h.581c4.089,0,8.179,0,12.268-.007a3.726,3.726,0,0,0,1.161-.17,2.431,2.431,0,0,0,1.606-2.636,2.474,2.474,0,0,0-2.513-2.138c-4.106-.008-8.214-.051-12.319.018a20.809,20.809,0,0,0-11.151,3.469.768.768,0,0,0-.4.743c.013,3.351.007,6.7.007,10.054Zm10.729-20.63v-.528q0-5.828,0-11.656c0-.749.271-1.016,1.024-1.019.382,0,.765,0,1.233,0-.26-.476-.478-.844-.665-1.226a.735.735,0,0,0-.772-.438c-2.286.019-4.572.01-6.858.01-2.389,0-2.364.014-3.574,2.12a16.617,16.617,0,0,0-1.917,9.7,3.094,3.094,0,0,0,2.762,2.947,33.178,33.178,0,0,0,3.7.085C4270.047-496.264,4271.712-496.271,4273.444-496.271Zm9.1-21.436v21.4h4.9v-4.916c-.208,0-.393-.009-.576,0a.873.873,0,0,1-.98-.493.92.92,0,0,1,.332-1.093c.87-.855,1.74-1.711,2.579-2.6a1.2,1.2,0,0,0,.307-.749c.02-3.694.014-7.388.013-11.083,0-.15-.013-.3-.021-.47Zm-21.5,27.244h-4.89v18.1h4.89Zm14.082-17.341v11.492h5.715V-507.8Zm-2.767-10.509c-.334.348-.7.758-1.1,1.137a1.417,1.417,0,0,1-2.238-.163c-.266-.331-.516-.674-.816-1.069-.413.433-.81.815-1.166,1.232a1.758,1.758,0,0,1-2.128.535c-.461-.166-.945-.269-1.545-.436.793,1.467,1.52,2.82,2.261,4.165a.411.411,0,0,0,.3.131c.387.015.775.006,1.222.006l-.779-1.692,1.458-.685a.755.755,0,0,1,.078.089c.315.647.627,1.3.947,1.942.059.118.14.31.223.317a4.87,4.87,0,0,0,1.281-.009c.159-.03.277-.357.383-.564.38-.74.747-1.486,1.133-2.259l1.48.75-1.037,2.111c.716,0,1.334.008,1.952-.008a.407.407,0,0,0,.312-.173c.589-1.4,1.162-2.8,1.782-4.313-.8.314-1.494,1.013-2.24.6A10,10,0,0,1,4272.36-518.314Zm25.277,15.412-4.392-4.422-4.423,4.422Zm-6.868,6.611c0-1.085,0-2.115,0-3.144,0-.678.289-.958.978-.961.945,0,1.89,0,2.834,0,.895,0,1.132.235,1.133,1.118q0,1.485,0,2.97h1.612v-4.89h-8.18v4.908Zm1.657-.024h1.608v-2.4h-1.608Z"/>
    <path id="Path_4605" data-name="Path 4605" d="M4256.357-464.824h-1.619v-1.632h1.619l-.015-.016v1.665Z" transform="translate(-0.232 -46.312)"/>
    <path id="Path_4606" data-name="Path 4606" d="M4278.364-466.457h1.619v1.632h-1.619l.015.016v-1.665Z" transform="translate(-20.604 -46.312)"/>
    <path id="Path_4607" data-name="Path 4607" d="M4560.156-460.237h1.58v1.589h-1.58Z" transform="translate(-263.583 -51.689)"/>
    <path id="Path_4608" data-name="Path 4608" d="M4268.035-454.5v1.621H4266.4V-454.5l-.015.016h1.665Z" transform="translate(-10.275 -56.634)"/>
    <path id="Path_4609" data-name="Path 4609" d="M4561.83-506.761h-1.619v-1.632h1.619l-.015-.016v1.665Z" transform="translate(-263.63 -10.151)"/>
    <path id="Path_4610" data-name="Path 4610" d="M4602.1-478.2h1.576v1.586H4602.1Z" transform="translate(-299.746 -36.2)"/>
    <path id="Path_4611" data-name="Path 4611" d="M4266.4-476.5v-1.621h1.635v1.621l.015-.016h-1.665Z" transform="translate(-10.275 -36.268)"/>
    <path id="Path_4612" data-name="Path 4612" d="M4254.674-418.309h1.582v1.591h-1.582Z" transform="translate(-0.177 -87.842)"/>
    <path id="Path_4613" data-name="Path 4613" d="M4571.873-518.436v-1.621h1.633v1.619l.017-.015h-1.665Z" transform="translate(-273.673 -0.108)"/>
    <path id="Path_4614" data-name="Path 4614" d="M4573.506-496.437v1.62h-1.633v-1.621l-.015.016h1.665Z" transform="translate(-273.673 -20.473)"/>
    <path id="Path_4615" data-name="Path 4615" d="M4278.61-518.469v-1.579h1.588v1.579Z" transform="translate(-20.816 -0.116)"/>
    <path id="Path_4616" data-name="Path 4616" d="M4583.826-508.4h1.62v1.635h-1.62l.017.015v-1.665Z" transform="translate(-283.993 -10.151)"/>
    <path id="Path_4617" data-name="Path 4617" d="M4347.147-422.872v.791h-1.637v-.62a4.4,4.4,0,0,1-1.472-.531c-.247-.216-.184-.786-.271-1.267h3.344v-.848c-.763,0-1.514,0-2.265,0-.721,0-1-.277-1-.99s0-1.409,0-2.114c0-.748.272-1.013,1.026-1.017.187,0,.373,0,.592,0l.058-.8h1.593c.015.245.029.492.045.757.5.137,1.162-.182,1.461.4a4.587,4.587,0,0,1,.236,1.291h-3.344v.832c.749,0,1.5,0,2.248,0s1.025.27,1.028,1.016c0,.67,0,1.34,0,2.011,0,.85-.245,1.091-1.105,1.1Z" transform="translate(-76.998 -77.529)"/>
    <path id="Path_4618" data-name="Path 4618" d="M4470.383-466.342h.742v1.6h-.742Z" transform="translate(-186.175 -46.424)"/>
    <path id="Path_4619" data-name="Path 4619" d="M4488.352-466.342h.742v1.6h-.742Z" transform="translate(-201.669 -46.424)"/>
    <path id="Path_4620" data-name="Path 4620" d="M4471.122-440.607h-.757V-442.2h.757Z" transform="translate(-186.16 -67.245)"/>
    <path id="Path_4621" data-name="Path 4621" d="M4489.074-490.149v1.576h-.763v-1.576Z" transform="translate(-201.634 -25.897)"/>
    <path id="Path_4622" data-name="Path 4622" d="M4470.383-418.414h.742v1.6h-.742Z" transform="translate(-186.175 -87.751)"/>
    <path id="Path_4623" data-name="Path 4623" d="M4488.318-418.308h.76v1.6h-.76Z" transform="translate(-201.64 -87.842)"/>
    <path id="Path_4624" data-name="Path 4624" d="M4470.278-490.225h.764v1.6h-.764Z" transform="translate(-186.085 -25.831)"/>
    <path id="Path_4625" data-name="Path 4625" d="M4488.267-442.273h.759v1.591h-.759Z" transform="translate(-201.596 -67.178)"/>
    <path id="Path_4626" data-name="Path 4626" d="M4278.616-283.985v-2.4h1.586v2.4Z" transform="translate(-20.822 -201.594)"/>
    <path id="Path_4627" data-name="Path 4627" d="M4416.391-418.309h.759v1.591h-.759Z" transform="translate(-139.62 -87.842)"/>
    <path id="Path_4628" data-name="Path 4628" d="M4434.36-418.319h.76v1.593h-.76Z" transform="translate(-155.114 -87.833)"/>
    <path id="Path_4629" data-name="Path 4629" d="M4417.229-392.647h-.752v-1.6h.752Z" transform="translate(-139.694 -108.588)"/>
    <path id="Path_4630" data-name="Path 4630" d="M4434.44-394.377h.753v1.6h-.753Z" transform="translate(-155.183 -108.477)"/>
    <path id="Path_4631" data-name="Path 4631" d="M4417.2-368.732h-.763v-1.6h.763Z" transform="translate(-139.66 -129.215)"/>
    <path id="Path_4632" data-name="Path 4632" d="M4435.2-368.676h-.742v-1.6h.742Z" transform="translate(-155.196 -129.259)"/>
  </g>
</svg>
