<svg id="Group_3920" data-name="Group 3920" xmlns="http://www.w3.org/2000/svg" width="32" height="32" viewBox="0 0 32 32">
  <circle id="Ellipse_56" data-name="Ellipse 56" cx="16" cy="16" r="16" fill="#ff6782"/>
  <g id="Group_3919" data-name="Group 3919" transform="translate(7.592 9.077)">
    <path id="Path_4252" data-name="Path 4252" d="M6024.062,1984.539c.042-.263.074-.528.13-.788a6.816,6.816,0,0,1,3.992-4.981l.147-.069c-.157-.187-.318-.358-.457-.545a3.855,3.855,0,1,1,3.654,1.521c-.3.04-.61.04-.916.061a5.358,5.358,0,0,0-4.933,4.365c0,.021-.008.043-.01.065,0,.038-.006.076-.012.14h5.249a.763.763,0,0,1,.163,1.514,1.64,1.64,0,0,1-.262.019c-1.909,0-3.819-.008-5.729.006a.94.94,0,0,1-1.017-.586Zm4.593-8.636a2.287,2.287,0,1,0,2.29-2.3A2.288,2.288,0,0,0,6028.655,1975.9Z" transform="translate(-6024.062 -1972.003)" fill="#fff"/>
    <path id="Path_4253" data-name="Path 4253" d="M6218.815,2160.409l1.105-1.011q1.451-1.332,2.9-2.663a.772.772,0,0,1,.891-.167.761.761,0,0,1,.433.763.774.774,0,0,1-.273.524l-3.1,2.84-1.392,1.275a.777.777,0,0,1-1.187-.022q-1.1-1.1-2.2-2.206a.767.767,0,0,1,.428-1.321.767.767,0,0,1,.677.257q.793.8,1.589,1.591C6218.727,2160.307,6218.761,2160.35,6218.815,2160.409Z" transform="translate(-6207.334 -2148.396)" fill="#fff"/>
  </g>
</svg>
