<svg xmlns="http://www.w3.org/2000/svg" width="41.248" height="41.246" viewBox="0 0 41.248 41.246">
  <g id="Group_4506" data-name="Group 4506" transform="translate(-4242.479 32.676)">
    <path id="Path_4633" data-name="Path 4633" d="M4283.727-29.292V1.965c-.023.031-.059.059-.068.093a4,4,0,0,1-4.2,3.289h-1.051c0,.833.006,1.61,0,2.387a.77.77,0,0,1-.79.831q-4.047.01-8.094,0a.765.765,0,0,1-.775-.763c-.011-.214,0-.429,0-.644q0-.9,0-1.791h-11.282c0,.766,0,1.514,0,2.262,0,.645-.291.94-.927.94q-3.906,0-7.812,0c-.635,0-.922-.3-.924-.942,0-.748,0-1.5,0-2.279-.467,0-.894,0-1.32,0a4.006,4.006,0,0,1-3.995-4q-.007-15.02.005-30.04a3.832,3.832,0,0,1,2.259-3.573,9.352,9.352,0,0,1,1.116-.413h34.479a1.644,1.644,0,0,0,.213.084,4.01,4.01,0,0,1,2.833,2.33C4283.531-29.952,4283.616-29.616,4283.727-29.292Zm-20.612-1.774h-16.309a2.468,2.468,0,0,0-2.715,2.722q0,14.678,0,29.357a2.47,2.47,0,0,0,2.712,2.726h32.578A2.474,2.474,0,0,0,4282.117,1q0-14.658,0-29.316a2.472,2.472,0,0,0-2.733-2.745Zm-7.294,38.019V5.374h-6.382V6.952Zm14.55-.02h6.4V5.368h-6.4Z"/>
    <path id="Path_4634" data-name="Path 4634" d="M4307.2,44.129h-14.255c-.785,0-1.041-.253-1.041-1.028q0-12.664,0-25.329c0-.779.253-1.03,1.038-1.03h28.55c.757,0,1.021.26,1.021,1.007q0,12.684,0,25.369c0,.747-.265,1.011-1.019,1.011Zm13.686-22.554v-3.2h-27.346V42.49h27.345V39.3c-.782,0-1.544,0-2.306,0a.8.8,0,0,1-.9-.89c0-.98,0-1.96,0-2.94,0-.728.267-1,.989-1s1.468,0,2.206,0V26.406c-.777,0-1.527,0-2.277,0a.805.805,0,0,1-.917-.91q-.005-1.49,0-2.98c0-.645.289-.937.928-.939C4319.362,21.573,4320.111,21.575,4320.887,21.575Zm-1.574,3.2h1.567v-1.56h-1.567Zm.014,11.308V37.66h1.549V36.082Z" transform="translate(-44.106 -44.099)"/>
    <path id="Path_4635" data-name="Path 4635" d="M4375.384,77.21a8.054,8.054,0,1,1-8-8.07A8.036,8.036,0,0,1,4375.384,77.21Zm-13.134-3.927a5.692,5.692,0,0,0-1.269,3.107c.238,0,.478-.007.716,0a.8.8,0,0,1-.009,1.6c-.237.008-.475,0-.747,0a6.344,6.344,0,0,0,1.35,3.174,6.458,6.458,0,0,1,.452-.536.809.809,0,1,1,1.144,1.142,4.2,4.2,0,0,1-.6.429,6.432,6.432,0,0,0,3.236,1.359c0-.276-.006-.5,0-.729a.8.8,0,0,1,1.6-.013c.009.238,0,.478,0,.75a6.206,6.206,0,0,0,3.116-1.29c-.434-.5-1.158-.953-.509-1.635.694-.729,1.177.023,1.685.468a6.248,6.248,0,0,0,1.277-3.092,6.116,6.116,0,0,1-.988-.085.679.679,0,0,1-.542-.751c.085-1,.889-.752,1.542-.816a6.435,6.435,0,0,0-1.358-3.186,5.009,5.009,0,0,1-.425.552.812.812,0,1,1-1.145-1.147c.149-.162.307-.316.476-.489a6.292,6.292,0,0,0-3.127-1.284c0,.263.006.489,0,.714a.8.8,0,1,1-1.605.009c-.007-.235,0-.47,0-.731a6.367,6.367,0,0,0-3.126,1.295c.462.5,1.2.985.476,1.677C4363.2,74.433,4362.735,73.712,4362.25,73.283Z" transform="translate(-104.226 -90.858)"/>
    <path id="Path_4636" data-name="Path 4636" d="M4323.448,125.591c0,1.032,0,2.064,0,3.1a.808.808,0,1,1-1.606.017q0-3.136,0-6.272a.808.808,0,1,1,1.606.023C4323.45,123.5,4323.448,124.545,4323.448,125.591Z" transform="translate(-70.819 -137.622)"/>
    <path id="Path_4637" data-name="Path 4637" d="M4322.662,93.208a.8.8,0,1,1,.8-.818A.791.791,0,0,1,4322.662,93.208Z" transform="translate(-70.833 -110.903)"/>
    <path id="Path_4638" data-name="Path 4638" d="M4410.63,117.28a3.221,3.221,0,1,1-3.215-3.226A3.209,3.209,0,0,1,4410.63,117.28Zm-3.239,1.605a1.611,1.611,0,1,0-1.592-1.639A1.642,1.642,0,0,0,4407.391,118.885Z" transform="translate(-144.306 -130.939)"/>
  </g>
</svg>
