<svg xmlns="http://www.w3.org/2000/svg" xmlns:xlink="http://www.w3.org/1999/xlink" width="20" height="20" viewBox="0 0 20 20">
  <defs>
    <clipPath id="clip-path">
      <rect id="Rectangle_1600" data-name="Rectangle 1600" width="20" height="20" transform="translate(-282 -16644)" fill="#fff"/>
    </clipPath>
  </defs>
  <g id="Mask_Group_422" data-name="Mask Group 422" transform="translate(282 16644)" clip-path="url(#clip-path)">
    <g id="Layer_2" data-name="Layer 2" transform="translate(-282 -16643.219)">
      <g id="Layer_2-2" data-name="Layer 2">
        <path id="Path_4714" data-name="Path 4714" d="M0,11.92c.352-.651.7-1.3,1.064-1.951a.581.581,0,0,1,.8-.23q.9.483,1.8.987a.578.578,0,0,1,.23.794.592.592,0,0,1-.8.227c-.218-.111-.431-.233-.644-.35l-.044.031c.1.285.184.578.306.853a7.853,7.853,0,0,0,6.384,4.9,8,8,0,0,0,8.935-6.289c.056-.26.083-.527.141-.787a.577.577,0,0,1,1.113-.031.924.924,0,0,1,.015.347,8.758,8.758,0,0,1-1.026,3.173,9.1,9.1,0,0,1-6.42,4.68A9.237,9.237,0,0,1,1.414,12.177c-.023-.072-.049-.143-.086-.251-.061.1-.107.171-.141.244a.665.665,0,0,1-.613.439A.6.6,0,0,1,0,12.193Z"/>
        <path id="Path_4715" data-name="Path 4715" d="M9.649,4.8h.7c0-.4-.005-.8,0-1.194a.581.581,0,0,1,.852-.53.572.572,0,0,1,.318.542V4.783a7.817,7.817,0,0,1,.8.11A2.223,2.223,0,0,1,14,7.131a.585.585,0,1,1-1.169.023,2.254,2.254,0,0,0-.043-.386A1.085,1.085,0,0,0,11.538,6V8.865c.328.092.671.182,1.01.285a1.872,1.872,0,0,1,1.409,1.518,2.319,2.319,0,0,1-1.272,2.74,4.177,4.177,0,0,1-.924.207,1.352,1.352,0,0,1-.235,0v.713a.589.589,0,1,1-1.172.007v-.709h-.7v.7A.59.59,0,1,1,8.48,14.32v-.71c-.13,0-.246.006-.361,0a2.251,2.251,0,0,1-2.11-2.525A.58.58,0,0,1,7.16,11.06a1.605,1.605,0,0,1,.013.235A1.073,1.073,0,0,0,8.465,12.43v-3.2c-.3-.085-.6-.177-.91-.257A1.911,1.911,0,0,1,6.068,7.526a2.093,2.093,0,0,1,.626-2.085,2.218,2.218,0,0,1,1.631-.629c.044,0,.088,0,.157-.008,0-.408-.007-.81,0-1.211a.579.579,0,0,1,.865-.506.572.572,0,0,1,.3.531C9.651,4.007,9.649,4.4,9.649,4.8Zm1.888,5.281v2.345a1.061,1.061,0,0,0,1.253-.777,2.516,2.516,0,0,0,.033-.638.759.759,0,0,0-.554-.722C12.036,10.217,11.8,10.157,11.538,10.084ZM8.462,8.009V5.994a1.1,1.1,0,0,0-1.253.777.8.8,0,0,0,.435,1c.263.1.543.165.817.245ZM9.66,9.56v2.869h.693c0-.872,0-1.731,0-2.589a.143.143,0,0,0-.078-.107c-.2-.061-.4-.112-.611-.171Zm.677-1.033V6H9.65c0,.759,0,1.506,0,2.254a.143.143,0,0,0,.078.108c.2.063.4.113.605.17Z"/>
        <path id="Path_4716" data-name="Path 4716" d="M18.694,5.732c.066-.149.119-.274.176-.394a.585.585,0,1,1,1.079.452q-.389.925-.8,1.843a.59.59,0,0,1-.8.321c-.632-.258-1.258-.53-1.881-.808a.575.575,0,0,1-.29-.758.589.589,0,0,1,.75-.313c.122.043.24.1.359.151l.4.168c-.058-.144-.093-.246-.138-.343a7.847,7.847,0,0,0-6.762-4.834A8,8,0,0,0,2.3,7.431c-.092.4-.329.611-.66.58a.6.6,0,0,1-.5-.775A8.683,8.683,0,0,1,1.9,5.11,9.058,9.058,0,0,1,8.2.218,9.2,9.2,0,0,1,18.587,5.491Z"/>
      </g>
    </g>
  </g>
</svg>
