<svg xmlns="http://www.w3.org/2000/svg" width="10.853" height="20.003" viewBox="0 0 10.853 20.003">
  <path id="Path_57" data-name="Path 57" d="M-1268.677,448.448v.142c0,.445,0,.89,0,1.335a.763.763,0,0,1-.808.765.766.766,0,0,1-.814-.76q0-.693,0-1.386c0-.089-.021-.12-.114-.134a5.837,5.837,0,0,1-3.288-1.559,3.691,3.691,0,0,1-1.19-2.509,1.142,1.142,0,0,1,.847-1.255,1.621,1.621,0,0,1,1.684.31.935.935,0,0,1,.338.707,1.8,1.8,0,0,0,.7,1.417,2.642,2.642,0,0,0,1.02.527v-.135q0-2.047,0-4.094a.182.182,0,0,0-.118-.19,21.484,21.484,0,0,1-3.082-1.875c-.064-.048-.124-.1-.188-.148a3.226,3.226,0,0,1-.679-4.338,5.182,5.182,0,0,1,2.391-1.894,6.034,6.034,0,0,1,1.513-.412c.049-.007.1-.017.16-.027V432.8q0-.661,0-1.323a.743.743,0,0,1,.589-.76.827.827,0,0,1,.938.365.87.87,0,0,1,.091.372c.011.449.008.9,0,1.348,0,.113.026.154.147.174a5.691,5.691,0,0,1,3.544,1.861,3.617,3.617,0,0,1,.914,2.331,1.053,1.053,0,0,1-.409.879,1.69,1.69,0,0,1-2.067-.006,1.045,1.045,0,0,1-.4-.831,1.545,1.545,0,0,0-.229-.8,2.469,2.469,0,0,0-1.492-1.081v.14q0,2.091,0,4.182a.184.184,0,0,0,.13.194c.693.319,1.392.625,2.073.969a4.682,4.682,0,0,1,1.573,1.237,3.538,3.538,0,0,1,.845,2.3,3.4,3.4,0,0,1-.963,2.292,5.666,5.666,0,0,1-3.053,1.694C-1268.268,448.381-1268.463,448.409-1268.677,448.448Zm.012-5.995v3.61a2.5,2.5,0,0,0,1.367-.861,1.463,1.463,0,0,0,.073-1.79A2.6,2.6,0,0,0-1268.665,442.453Zm-1.641-7.145a2.437,2.437,0,0,0-1.481,1.033,1.39,1.39,0,0,0,.295,1.877,9.2,9.2,0,0,0,.827.57c.11.073.231.13.359.2Z" transform="translate(1274.912 -430.688)"/>
</svg>
