<svg xmlns="http://www.w3.org/2000/svg" xmlns:xlink="http://www.w3.org/1999/xlink" width="106.191" height="135.605" viewBox="0 0 106.191 135.605">
  <defs>
    <clipPath id="clip-path">
      <path id="Path_4692" data-name="Path 4692" d="M696.85,425.107c-8.207-6.606-17.106-9.807-25.869-14.532l-4.021,30.1-33.544-31.623c-7.806,8.493-19.117,20.322-21.073,26.566-2.9,9.265-2.075,28.869-2.075,28.869H716.35S708.19,434.234,696.85,425.107Z" transform="translate(-610.159 -409.052)" fill="none"/>
    </clipPath>
  </defs>
  <g id="Group_4720" data-name="Group 4720" transform="translate(-610.159 -173.164)">
    <path id="Path_4676" data-name="Path 4676" d="M622.029,274.494a12.812,12.812,0,0,1-5.44-5.635c-1.091-2.419-1.759-5.374-.323-7.606a14.43,14.43,0,0,1-5.075-13.663c.79-4.186,3.4-7.769,5.017-11.711,2.445-5.977,2.537-12.632,2.264-19.084s-.869-12.976.318-19.324c.76-4.063,2.594-8.319,5.722-11.021l-3.857-.656a1.926,1.926,0,0,1-1.107-.443,1.245,1.245,0,0,1-.005-1.545,2.6,2.6,0,0,1,1.4-.866c1.468-.437,3.776-.78,5.135-.074a21.435,21.435,0,0,1,.375-4.643,8.379,8.379,0,0,1,2.085-4.107.784.784,0,0,1,.507-.29c.418-.006.574.542.589.96a27.7,27.7,0,0,1-.587,6.785c6.022-6.42,15.587-8.309,24.388-8.4a41.787,41.787,0,0,1,15.175,2.242,22.165,22.165,0,0,1,11.72,9.54c3.019,5.422,2.994,11.947,3.117,18.151s.619,12.829,4.391,17.757c2.242,2.929,5.445,4.971,7.918,7.708a18.019,18.019,0,0,1,4.715,10.789,14.666,14.666,0,0,1-3.871,11,17.961,17.961,0,0,1,4.755,12.419,18.324,18.324,0,0,1-5.317,12.341" transform="translate(-0.531 0)"/>
    <g id="Group_4713" data-name="Group 4713" transform="translate(610.159 228.295)">
      <path id="Path_4677" data-name="Path 4677" d="M719.512,359.308a10.262,10.262,0,0,1-2.665-3.41c-4.149-9.127-3.181-11.755-3.181-11.755l-19.085-8.159s1.245,11.064-.83,15.766a25.479,25.479,0,0,1-3.58,4.726c7.806,7.11,26.471,23.909,26.471,23.909Z" transform="translate(-663.079 -335.983)" fill="#fff"/>
      <path id="Path_4678" data-name="Path 4678" d="M696.85,425.107c-8.207-6.606-17.106-9.807-25.869-14.532l-4.021,30.1-33.544-31.623c-7.806,8.493-19.117,20.322-21.073,26.566-2.9,9.265-2.075,28.869-2.075,28.869H716.35S708.19,434.234,696.85,425.107Z" transform="translate(-610.159 -384.31)" fill="#ff6782"/>
      <path id="Path_4679" data-name="Path 4679" d="M716.41,402.275a23.738,23.738,0,0,1-4.389-2.94l-2.869,21.076s-18.665-16.8-26.471-23.909c-1.111,1.27-2.415,2.705-3.835,4.25l33.544,31.623Z" transform="translate(-655.588 -376.009)" fill="#ecf1ff"/>
    </g>
    <path id="Path_4680" data-name="Path 4680" d="M708.105,207.4s10.51,42.18-4.425,49.371-30.286-4.287-38.307-22.265,8.3-31.669,8.3-31.669Z" transform="translate(-35.051 -19.626)" fill="#fff"/>
    <path id="Path_4681" data-name="Path 4681" d="M726.134,274.442c.392,1.347-.071,2.667-1.035,2.947s-2.063-.584-2.456-1.931.072-2.667,1.036-2.947S725.742,273.095,726.134,274.442Z" transform="translate(-74.304 -65.673)"/>
    <path id="Path_4682" data-name="Path 4682" d="M778.736,266.764c.264,1.378-.322,2.648-1.308,2.837s-2-.775-2.263-2.153.322-2.648,1.308-2.837S778.473,265.386,778.736,266.764Z" transform="translate(-109.093 -60.467)"/>
    <path id="Path_4683" data-name="Path 4683" d="M698.807,264.028a64.707,64.707,0,0,0,15.472-2.23" transform="translate(-58.631 -58.622)" fill="none" stroke="#000" stroke-miterlimit="10" stroke-width="1"/>
    <path id="Path_4684" data-name="Path 4684" d="M772.479,249.259a9.7,9.7,0,0,0-12.95-1.558" transform="translate(-98.792 -48.115)" fill="none" stroke="#000" stroke-miterlimit="10" stroke-width="1"/>
    <g id="Group_4714" data-name="Group 4714" transform="translate(658.294 222.001)">
      <path id="Path_4685" data-name="Path 4685" d="M762.219,332.414a4.279,4.279,0,0,0,1.763-1.042,28,28,0,0,0-8.1-1.164C757.172,331.577,759.422,333.249,762.219,332.414Z" transform="translate(-754.673 -325.869)" fill="#e92249"/>
      <path id="Path_4686" data-name="Path 4686" d="M758.994,320.466a13.306,13.306,0,0,1-6.678-.267,10.19,10.19,0,0,0,1.206,1.534,28,28,0,0,1,8.1,1.164c2.015-1.945,2.177-5.5,2.177-5.5A9.284,9.284,0,0,1,758.994,320.466Z" transform="translate(-752.316 -317.394)"/>
    </g>
    <path id="Path_4687" data-name="Path 4687" d="M722.927,353.482a26.708,26.708,0,0,1-10.21-2.257,37.9,37.9,0,0,1-8.706-5.371,34.016,34.016,0,0,0,19.941,11.467" transform="translate(-62.074 -114.216)"/>
    <path id="Path_4688" data-name="Path 4688" d="M663.791,227.476a18.6,18.6,0,0,0,4.086-11.768,50.357,50.357,0,0,0-2.357-11.852,31.007,31.007,0,0,0,8.358,2.641,9.211,9.211,0,0,0,3.828.1.889.889,0,0,0,.531-.282.847.847,0,0,0,.138-.489,3.221,3.221,0,0,0-1-2.091,16.57,16.57,0,0,0-2.226-2.1c7.541,3.232,15.987,4.207,23.74,1.609,2.849-.955,5.7-2.512,7.28-5.219-1.27-4.316-5.172-7.077-9.134-8.677a41.51,41.51,0,0,0-16.589-3.074A23.9,23.9,0,0,0,669.89,188.7c-6.315,3.317-12.773,11.57-13.387,19.059S659.558,221.471,663.791,227.476Z" transform="translate(-30.607 -8.66)"/>
    <g id="Group_4715" data-name="Group 4715" transform="translate(623.166 209.811)">
      <path id="Path_4689" data-name="Path 4689" d="M649.124,290.707a11.334,11.334,0,0,0,4.137,5.211,8.49,8.49,0,0,0,3.953,1.611,4.344,4.344,0,0,0,3.639-1.238,5.624,5.624,0,0,0,1.287-3.538,12,12,0,0,0-3.6-8.686,7.944,7.944,0,0,0-5.6-2.668C648.955,281.568,647.736,286.947,649.124,290.707Z" transform="translate(-648.573 -281.395)" fill="#fff"/>
      <path id="Path_4690" data-name="Path 4690" d="M663.881,299.642a5.149,5.149,0,0,1-2.814-.5c-.268-.131-.559-.332-.6-.637a.926.926,0,0,1,.109-.485,8.381,8.381,0,0,1,1.6-2.407,17.226,17.226,0,0,0-2.545-3.244,5.27,5.27,0,0,0-3.581-1.561,2.966,2.966,0,0,0-2.842,2.245s-1.093,3.88,3.571,7.091C661.7,303.527,663.881,299.642,663.881,299.642Z" transform="translate(-651.567 -287.617)" fill="#ff6782" style="mix-blend-mode: multiply;isolation: isolate"/>
      <path id="Path_4691" data-name="Path 4691" d="M653.428,293.049a2.966,2.966,0,0,1,2.842-2.245,5.27,5.27,0,0,1,3.581,1.561,17.226,17.226,0,0,1,2.545,3.244,8.384,8.384,0,0,0-1.6,2.407.927.927,0,0,0-.109.485c.04.3.331.506.6.637a5.149,5.149,0,0,0,2.815.5" transform="translate(-651.784 -287.617)" fill="none" stroke="#000" stroke-miterlimit="10" stroke-width="1"/>
    </g>
    <circle id="Ellipse_143" data-name="Ellipse 143" cx="3.31" cy="3.31" r="3.31" transform="matrix(0.16, -0.987, 0.987, 0.16, 630.671, 230.013)" fill="#ecf1ff"/>
    <g id="Group_4718" data-name="Group 4718" transform="translate(610.159 253.037)" opacity="0.54">
      <g id="Group_4717" data-name="Group 4717" clip-path="url(#clip-path)">
        <g id="Group_4716" data-name="Group 4716" transform="translate(-21 -5.959)">
          <line id="Line_65" data-name="Line 65" x2="24.95" y2="82.544" transform="translate(7.693)" fill="none" stroke="#fff" stroke-miterlimit="10" stroke-width="0.638"/>
          <line id="Line_66" data-name="Line 66" x2="24.95" y2="82.544" transform="translate(20.376)" fill="none" stroke="#fff" stroke-miterlimit="10" stroke-width="0.638"/>
          <line id="Line_67" data-name="Line 67" x2="24.95" y2="82.544" transform="translate(33.059)" fill="none" stroke="#fff" stroke-miterlimit="10" stroke-width="0.638"/>
          <line id="Line_68" data-name="Line 68" x2="24.95" y2="82.544" transform="translate(45.742)" fill="none" stroke="#fff" stroke-miterlimit="10" stroke-width="0.638"/>
          <line id="Line_69" data-name="Line 69" x2="24.95" y2="82.544" transform="translate(58.426)" fill="none" stroke="#fff" stroke-miterlimit="10" stroke-width="0.638"/>
          <line id="Line_70" data-name="Line 70" x2="24.95" y2="82.544" transform="translate(71.109)" fill="none" stroke="#fff" stroke-miterlimit="10" stroke-width="0.638"/>
          <line id="Line_71" data-name="Line 71" x2="24.95" y2="82.544" transform="translate(83.792)" fill="none" stroke="#fff" stroke-miterlimit="10" stroke-width="0.638"/>
          <line id="Line_72" data-name="Line 72" x2="24.95" y2="82.544" transform="translate(96.475)" fill="none" stroke="#fff" stroke-miterlimit="10" stroke-width="0.638"/>
          <line id="Line_73" data-name="Line 73" x2="24.95" y2="82.544" transform="translate(109.158)" fill="none" stroke="#fff" stroke-miterlimit="10" stroke-width="0.638"/>
          <line id="Line_74" data-name="Line 74" x2="24.95" y2="82.544" transform="translate(121.841)" fill="none" stroke="#fff" stroke-miterlimit="10" stroke-width="0.638"/>
          <line id="Line_75" data-name="Line 75" x2="138.891" transform="translate(0 10.188)" fill="none" stroke="#fff" stroke-miterlimit="10" stroke-width="0.638"/>
          <line id="Line_76" data-name="Line 76" x2="138.891" transform="translate(2.495 21.624)" fill="none" stroke="#fff" stroke-miterlimit="10" stroke-width="0.638"/>
          <line id="Line_77" data-name="Line 77" x2="138.891" transform="translate(4.99 33.059)" fill="none" stroke="#fff" stroke-miterlimit="10" stroke-width="0.638"/>
          <line id="Line_78" data-name="Line 78" x2="138.891" transform="translate(7.485 44.495)" fill="none" stroke="#fff" stroke-miterlimit="10" stroke-width="0.638"/>
          <line id="Line_79" data-name="Line 79" x2="138.891" transform="translate(9.98 55.931)" fill="none" stroke="#fff" stroke-miterlimit="10" stroke-width="0.638"/>
          <line id="Line_80" data-name="Line 80" x2="138.891" transform="translate(12.475 67.366)" fill="none" stroke="#fff" stroke-miterlimit="10" stroke-width="0.638"/>
          <line id="Line_81" data-name="Line 81" x2="138.891" transform="translate(14.97 78.802)" fill="none" stroke="#fff" stroke-miterlimit="10" stroke-width="0.638"/>
        </g>
      </g>
    </g>
    <path id="Path_4693" data-name="Path 4693" d="M822.133,456.938c3.9,3.937,8.5,7.087,12.719,10.681a30.359,30.359,0,0,1,7.414,8.538,19.233,19.233,0,0,1-1.481,20" transform="translate(-140.198 -187.687)" fill="none" stroke="#000" stroke-miterlimit="10" stroke-width="1"/>
    <path id="Path_4694" data-name="Path 4694" d="M671.583,449.875a139.4,139.4,0,0,1,16.794,41.612" transform="translate(-40.625 -183.015)" fill="none" stroke="#000" stroke-miterlimit="10" stroke-width="1"/>
    <g id="Group_4719" data-name="Group 4719" transform="translate(641.447 223.374)">
      <path id="Path_4695" data-name="Path 4695" d="M702.561,406.547s8.927-48.094,8.669-59.221-4.917-26.006-3.752-25.876a5.168,5.168,0,0,1,4.908,4.02,20.255,20.255,0,0,0,1.3,4.192s2.168,4.192,2.963,4.264S745.125,323.3,745.7,323.808s.289,2.024-1.951,3.614-11.925,7.227-11.925,7.227a5.38,5.38,0,0,1,1.924,4.982,5,5,0,0,1,.9,5.212,6.361,6.361,0,0,1,.314,4.995c-.493,1.4-2.67,1.548-4.135,1.758q-3.054.436-6.087,1.006l.648,53.946Z" transform="translate(-702.561 -321.45)" fill="#fff"/>
      <path id="Path_4696" data-name="Path 4696" d="M719.449,359.527a98.546,98.546,0,0,0,1.02-12.2c-.259-11.127-4.917-26.006-3.752-25.876a5.168,5.168,0,0,1,4.908,4.02,20.259,20.259,0,0,0,1.3,4.192s2.169,4.192,2.963,4.264,28.475-10.624,29.053-10.118.289,2.024-1.951,3.614-11.925,7.227-11.925,7.227a5.38,5.38,0,0,1,1.924,4.982,5,5,0,0,1,.9,5.212,6.361,6.361,0,0,1,.314,4.995c-.493,1.4-2.67,1.548-4.135,1.758q-3.053.436-6.087,1.006l.218,18.168" transform="translate(-711.8 -321.45)" fill="none" stroke="#000" stroke-miterlimit="10" stroke-width="1"/>
    </g>
    <path id="Path_4697" data-name="Path 4697" d="M724.917,285.035a7.048,7.048,0,0,0-1.615,2.276,2.983,2.983,0,0,0,.155,2.671A3.044,3.044,0,0,0,724.9,291.1c2.075.836,4.456-.122,6.348-1.306s3.734-2.652,5.967-2.942c2.537-.33,4.966.936,7.476,1.4,1.469.274,3.27.139,4.073-1.08a2.7,2.7,0,0,0-.1-2.848,6.23,6.23,0,0,0-2.273-2C742.8,280.255,732.686,277.037,724.917,285.035Z" transform="translate(-74.674 -70.597)" fill="#e26489" opacity="0.122" style="mix-blend-mode: multiply;isolation: isolate"/>
    <path id="Path_4698" data-name="Path 4698" d="M757.2,262.212c.83,5.693,3.425,10.948,5.786,16.194.113.251.214.578.019.772a.66.66,0,0,1-.359.148,11.819,11.819,0,0,1-5.163-.366" transform="translate(-97.25 -58.896)" fill="none" stroke="#000" stroke-miterlimit="10" stroke-width="1"/>
  </g>
</svg>
