<svg xmlns="http://www.w3.org/2000/svg" width="304.684" height="219.1" viewBox="0 0 304.684 219.1">
  <g id="Group_4532" data-name="Group 4532" transform="translate(-299.383 -137.284)">
    <g id="Group_4500" data-name="Group 4500" transform="translate(299.873 138.049)">
      <line id="Line_47" data-name="Line 47" x1="303.704" transform="translate(0 209.979)" fill="none" stroke="#000" stroke-linecap="round" stroke-linejoin="round" stroke-width="0.98"/>
      <g id="Group_4497" data-name="Group 4497" transform="translate(49.5 0)">
        <rect id="Rectangle_1316" data-name="Rectangle 1316" width="12.427" height="5.109" transform="translate(12.427 5.109)" fill="none" stroke="#000" stroke-linecap="round" stroke-linejoin="round" stroke-width="0.98"/>
        <path id="Path_4557" data-name="Path 4557" d="M375.365,145.195h12.427V150.3H375.365" transform="translate(-375.365 -140.085)" fill="none" stroke="#000" stroke-linecap="round" stroke-linejoin="round" stroke-width="0.98"/>
        <rect id="Rectangle_1317" data-name="Rectangle 1317" width="12.427" height="5.109" transform="translate(6.213 10.219)" fill="none" stroke="#000" stroke-linecap="round" stroke-linejoin="round" stroke-width="0.98"/>
        <path id="Path_4558" data-name="Path 4558" d="M393.741,138.314v5.109h-6.9v-5.109" transform="translate(-378.318 -138.314)" fill="none" stroke="#000" stroke-linecap="round" stroke-linejoin="round" stroke-width="0.98"/>
      </g>
      <g id="Group_4498" data-name="Group 4498" transform="translate(240.693 83.903)">
        <rect id="Rectangle_1318" data-name="Rectangle 1318" width="12.427" height="5.109" transform="translate(12.427 5.109)" fill="none" stroke="#000" stroke-linecap="round" stroke-linejoin="round" stroke-width="0.98"/>
        <path id="Path_4559" data-name="Path 4559" d="M632.842,258.186h12.427V263.3H632.842" transform="translate(-632.842 -253.076)" fill="none" stroke="#000" stroke-linecap="round" stroke-linejoin="round" stroke-width="0.98"/>
        <rect id="Rectangle_1319" data-name="Rectangle 1319" width="12.427" height="5.109" transform="translate(6.213 10.219)" fill="none" stroke="#000" stroke-linecap="round" stroke-linejoin="round" stroke-width="0.98"/>
        <path id="Path_4560" data-name="Path 4560" d="M651.218,251.3v5.109h-6.9V251.3" transform="translate(-635.795 -251.305)" fill="none" stroke="#000" stroke-linecap="round" stroke-linejoin="round" stroke-width="0.98"/>
      </g>
      <g id="Group_4499" data-name="Group 4499" transform="translate(256.818 118.705)">
        <path id="Path_4561" data-name="Path 4561" d="M694.925,373.449H675.416c-9.29,0-9.476,6.085-6.317,17.512s5.016,17.929,5.016,17.929" transform="translate(-657.827 -317.551)" fill="none" stroke="#000" stroke-linecap="round" stroke-linejoin="round" stroke-width="0.98"/>
        <path id="Path_4562" data-name="Path 4562" d="M681.927,319.841s4.588-14.744-12.753-21.618l2.725,4.025s-8.679-4.606-17.341-4.025C655.3,317.484,672.385,320.712,681.927,319.841Z" transform="translate(-654.558 -298.172)" fill="#d5d5d5"/>
        <path id="Path_4563" data-name="Path 4563" d="M694.658,358.618s5.822-27.916-14.245-42.78" transform="translate(-661.214 -302.72)" fill="none" stroke="#000" stroke-linecap="round" stroke-linejoin="round" stroke-width="0.98"/>
        <path id="Path_4564" data-name="Path 4564" d="M672.466,344.272c-1.734-7.89-13.377-2.811-12.262,4.868s5.218,11.024,5.218,11.024,6.8-3.592,10.884-6.317S681.261,340.022,672.466,344.272Z" transform="translate(-655.992 -309.019)" fill="#d5d5d5"/>
        <path id="Path_4565" data-name="Path 4565" d="M694.244,352.8c-3.551-11.639-11.479-15.85-18.168-6.932" transform="translate(-660.098 -309.216)" fill="none" stroke="#000" stroke-linecap="round" stroke-linejoin="round" stroke-width="0.98"/>
        <line id="Line_48" data-name="Line 48" x1="23.154" transform="translate(9.546 61.426)" fill="none" stroke="#000" stroke-linecap="round" stroke-linejoin="round" stroke-width="0.98"/>
      </g>
    </g>
    <g id="Group_4527" data-name="Group 4527" transform="translate(325.777 137.284)">
      <path id="Path_4566" data-name="Path 4566" d="M453.055,248.14c3.84-8.577,44.808-18.239,56.219-9.754l-4.567,12.2-41.247,5.326Z" transform="translate(-371.769 -162.466)"/>
      <g id="Group_4508" data-name="Group 4508" transform="translate(77.223)">
        <path id="Path_4567" data-name="Path 4567" d="M506.995,147.347c10.3,10.268,8.07,23.026,11.043,33.059s10.652,21.429,3.1,30.842-24.773,10.776-29.852,0-14.987-12.139-21.615-7.8-18.641,4.583-21.614-4.83,8.794-17.465,16.35-16.97S478.362,139.061,506.995,147.347Z" transform="translate(-447.583 -139.602)"/>
        <g id="Group_4501" data-name="Group 4501" transform="translate(16.326 51.628)">
          <path id="Path_4568" data-name="Path 4568" d="M474.647,211.594l-5.078,35.921,29.975-.743,6.812-39.96Z" transform="translate(-469.569 -206.811)" fill="#ffbaa2"/>
          <path id="Path_4569" data-name="Path 4569" d="M473.189,230.062l24.345-17.185-21.955.279Z" transform="translate(-470.501 -208.373)" fill="#dea08a"/>
        </g>
        <g id="Group_4507" data-name="Group 4507" transform="translate(6.215)">
          <path id="Path_4570" data-name="Path 4570" d="M495.039,151.539c-15.3-4.474-32.576,7.308-33.319,26.755s13.625,26.012,28.117,23.287S513,185.353,511.282,170.937A22.245,22.245,0,0,0,495.039,151.539Z" transform="translate(-457.431 -140.71)" fill="#ffbaa2"/>
          <path id="Path_4571" data-name="Path 4571" d="M460.283,162.568l28.284,4.992s4.954-8.919,11.519-10.653a15.315,15.315,0,0,0-.867,16.047l-1.487,7.364,5.2,1.61s2.548-5.583,7.034-5.331c7.83-.862,8.325-19.814,2.132-28.732-3.264-4.7-14.182-13.625-33.041-9.537-13.907,3.015-19.31,14.45-21.188,20.246A3.094,3.094,0,0,0,460.283,162.568Z" transform="translate(-456.408 -137.284)"/>
          <g id="Group_4505" data-name="Group 4505" transform="translate(0 28.377)">
            <path id="Path_4572" data-name="Path 4572" d="M478.952,202.175a7.043,7.043,0,0,0,8.268-.558" transform="translate(-461.874 -182.223)" fill="none" stroke="#100d14" stroke-linecap="round" stroke-linejoin="round" stroke-width="0.98"/>
            <g id="Group_4504" data-name="Group 4504">
              <path id="Path_4573" data-name="Path 4573" d="M477.223,182.351l-4.986,9.754,3.778,1.022" transform="translate(-460.146 -177.263)" fill="none" stroke="#100d14" stroke-linecap="round" stroke-linejoin="round" stroke-width="0.98"/>
              <g id="Group_4502" data-name="Group 4502">
                <path id="Rectangle_1320" data-name="Rectangle 1320" d="M1.009,0h0A1.009,1.009,0,0,1,2.018,1.009V2.418A1.009,1.009,0,0,1,1.009,3.427h0A1.009,1.009,0,0,1,0,2.418V1.009A1.009,1.009,0,0,1,1.009,0Z" transform="translate(10.65 5.061) rotate(12.326)" fill="#100d14"/>
                <circle id="Ellipse_122" data-name="Ellipse 122" cx="7.293" cy="7.293" r="7.293" fill="none" stroke="#100d14" stroke-linecap="round" stroke-linejoin="round" stroke-width="0.98"/>
              </g>
              <g id="Group_4503" data-name="Group 4503" transform="translate(18.053 2.201)">
                <rect id="Rectangle_1321" data-name="Rectangle 1321" width="2.018" height="3.427" rx="1.009" transform="translate(10.49 5.403) rotate(12.308)" fill="#100d14"/>
                <circle id="Ellipse_123" data-name="Ellipse 123" cx="7.293" cy="7.293" r="7.293" fill="none" stroke="#100d14" stroke-linecap="round" stroke-linejoin="round" stroke-width="0.98"/>
              </g>
            </g>
          </g>
          <g id="Group_4506" data-name="Group 4506" transform="translate(46.28 34.633)">
            <path id="Path_4574" data-name="Path 4574" d="M521.869,186.657c5.2-5.016,10.738-2.787,10.06,3.9s-6.463,12.149-12.674,11.184C516.016,195.3,521.869,186.657,521.869,186.657Z" transform="translate(-518.278 -183.924)" fill="#ffbaa2"/>
            <path id="Path_4575" data-name="Path 4575" d="M530.287,188.868c-3.53-1.161-7.246,4.738-5.3,9.847" transform="translate(-519.868 -185.159)" fill="none" stroke="#100d14" stroke-linecap="round" stroke-linejoin="round" stroke-width="0.98"/>
            <path id="Path_4576" data-name="Path 4576" d="M524.481,196.589c.007-3.282,5.163-2.864,4.838-.4" transform="translate(-519.875 -186.578)" fill="none" stroke="#100d14" stroke-linecap="round" stroke-linejoin="round" stroke-width="0.98"/>
          </g>
        </g>
      </g>
      <g id="Group_4526" data-name="Group 4526" transform="translate(0 38.46)">
        <g id="Group_4510" data-name="Group 4510" transform="translate(38.553 37.459)">
          <path id="Path_4577" data-name="Path 4577" d="M444.907,249.278s3.252,4.738,23.364,4.645,32.855-14.4,32.855-14.4l-2.834,15.545s2.725-1.982,20.562-5.883,27.127,5.534,27.683,21.068-18.022,32.255-18.022,32.255l-10.892,71.9H437.289V301.394s-17.279-13.563-15.793-28.241,14.771-20.809,26.025-17.217A47.179,47.179,0,0,1,444.907,249.278Z" transform="translate(-402.174 -239.524)" fill="#c43c54"/>
          <g id="Group_4509" data-name="Group 4509" transform="translate(74.752 48.836)">
            <line id="Line_49" data-name="Line 49" x2="25.145" transform="translate(0 4.513)" fill="none" stroke="#100d14" stroke-linecap="round" stroke-linejoin="round" stroke-width="0.98"/>
            <path id="Path_4578" data-name="Path 4578" d="M496.175,305.291H521.32v16.922a6.7,6.7,0,0,1-6.7,6.7H502.874a6.7,6.7,0,0,1-6.7-6.7Z" transform="translate(-496.175 -305.291)" fill="none" stroke="#100d14" stroke-linecap="round" stroke-linejoin="round" stroke-width="0.98"/>
          </g>
          <path id="Path_4579" data-name="Path 4579" d="M417.439,273.309a402.662,402.662,0,0,0-21.932,44.215l35.115,7.246,1.672-30.471Z" transform="translate(-395.507 -248.222)" fill="#c43c54"/>
          <line id="Line_50" data-name="Line 50" x1="1.672" y2="47.378" transform="translate(35.115 46.078)" fill="none" stroke="#100d14" stroke-linecap="round" stroke-linejoin="round" stroke-width="0.98"/>
          <line id="Line_51" data-name="Line 51" y1="28.799" x2="5.682" transform="translate(93.27)" fill="none" stroke="#100d14" stroke-linecap="round" stroke-linejoin="round" stroke-width="0.98"/>
          <line id="Line_52" data-name="Line 52" x1="7.305" y1="17.446" transform="translate(42.733 9.754)" fill="none" stroke="#100d14" stroke-linecap="round" stroke-linejoin="round" stroke-width="0.98"/>
          <line id="Line_53" data-name="Line 53" x2="5.47" y2="5.872" transform="translate(30.966 50.173)" fill="none" stroke="#100d14" stroke-linecap="round" stroke-linejoin="round" stroke-width="0.98"/>
        </g>
        <g id="Group_4519" data-name="Group 4519" transform="translate(117.454 45.628)">
          <path id="Path_4580" data-name="Path 4580" d="M619.832,303.452c5.233,1.177.154,15.793-18.8,23.224s-33.134,0-33.134,0S579.545,299.674,619.832,303.452Z" transform="translate(-518.789 -264.057)"/>
          <g id="Group_4511" data-name="Group 4511" transform="translate(46.985 31.604)">
            <path id="Path_4581" data-name="Path 4581" d="M598.192,293.086s12.3,20.894,23.968,36.775c20.066,27.312-18,50.113-38.633,18.951-16.362-24.711-18.491-28.055-18.491-28.055Z" transform="translate(-565.036 -293.086)" fill="#ffbaa2"/>
            <path id="Path_4582" data-name="Path 4582" d="M613.727,318.424,567.9,325.868s2.044-14.68,34.093-25.92Z" transform="translate(-565.774 -294.853)" fill="#dea08a"/>
          </g>
          <path id="Path_4583" data-name="Path 4583" d="M555.15,251.394c19.025-1.407,22.853,16.992,40.132,27.862l17.279,10.869s-24.061,2.044-39.3,11.7c-13.481,8.548-12.634,11.519-12.634,11.519s-14.306-22.11-18.766-33.071S538.708,252.609,555.15,251.394Z" transform="translate(-511.518 -250.729)" fill="#c43c54"/>
          <g id="Group_4517" data-name="Group 4517" transform="translate(0 35.432)">
            <g id="Group_4515" data-name="Group 4515" transform="translate(0 19.431)">
              <g id="Group_4514" data-name="Group 4514" transform="translate(0 0)">
                <g id="Group_4512" data-name="Group 4512" transform="translate(8.424)">
                  <circle id="Ellipse_124" data-name="Ellipse 124" cx="20.623" cy="20.623" r="20.623" transform="translate(53.184 36.956) rotate(-63.632)" fill="#ffbaa2"/>
                  <path id="Path_4584" data-name="Path 4584" d="M585.769,338.017l-62.155,33.7,18.134,25.034,66.683-24.283Z" transform="translate(-515.811 -327.912)" fill="#ffbaa2"/>
                  <rect id="Rectangle_1322" data-name="Rectangle 1322" width="31.709" height="15.855" rx="7.927" transform="translate(0 43.554)" fill="#ffbaa2"/>
                </g>
                <g id="Group_4513" data-name="Group 4513" transform="translate(0 24.473)">
                  <rect id="Rectangle_1323" data-name="Rectangle 1323" width="10.282" height="21.645" rx="5.141" transform="translate(12.882 13.383)" fill="#ffbaa2"/>
                  <rect id="Rectangle_1324" data-name="Rectangle 1324" width="10.282" height="21.645" rx="5.141" transform="translate(1.903 5.141) rotate(-30.002)" fill="#ffbaa2"/>
                  <rect id="Rectangle_1325" data-name="Rectangle 1325" width="10.282" height="21.645" rx="5.141" transform="translate(23.164 13.383)" fill="#ffbaa2"/>
                  <rect id="Rectangle_1326" data-name="Rectangle 1326" width="10.282" height="21.645" rx="5.141" transform="translate(33.445 13.383)" fill="#ffbaa2"/>
                  <path id="Path_4585" data-name="Path 4585" d="M528.545,377.714a5.1,5.1,0,0,1,.846,2.816v11.363a5.156,5.156,0,0,1-5.141,5.141h0a5.156,5.156,0,0,1-5.142-5.141V380.53a5.156,5.156,0,0,1,5.142-5.141h0" transform="translate(-506.227 -362.006)" fill="none" stroke="#100d14" stroke-linecap="round" stroke-linejoin="round" stroke-width="0.98"/>
                  <path id="Path_4586" data-name="Path 4586" d="M540.751,376.364a5.15,5.15,0,0,1,2.486,4.4v11.363a5.155,5.155,0,0,1-5.141,5.141h0a5.156,5.156,0,0,1-5.141-5.141V380.761a5.151,5.151,0,0,1,2.615-4.473" transform="translate(-509.792 -362.237)" fill="none" stroke="#100d14" stroke-linecap="round" stroke-linejoin="round" stroke-width="0.98"/>
                  <path id="Path_4587" data-name="Path 4587" d="M557.084,383.069v8.825a5.156,5.156,0,0,1-5.141,5.141h0a5.156,5.156,0,0,1-5.141-5.141V380.53a5.156,5.156,0,0,1,5.141-5.141h9.987" transform="translate(-513.357 -362.006)" fill="none" stroke="#100d14" stroke-linecap="round" stroke-linejoin="round" stroke-width="0.98"/>
                  <path id="Path_4588" data-name="Path 4588" d="M508.118,360.827c-6.108,4-6.231,18.616-6.355,24.438s9.909,7.432,11.024-1.239,1.856-13.826,1.856-13.826Z" transform="translate(-501.762 -358.257)" fill="#ffbaa2"/>
                  <path id="Path_4589" data-name="Path 4589" d="M508.118,360.827c-6.108,4-6.231,18.616-6.355,24.438s9.909,7.432,11.024-1.239,1.856-13.826,1.856-13.826" transform="translate(-501.762 -358.257)" fill="none" stroke="#100d14" stroke-linecap="round" stroke-linejoin="round" stroke-width="0.98"/>
                </g>
                <path id="Path_4590" data-name="Path 4590" d="M560.648,389.4s.682,5.2,4.846,5.667" transform="translate(-516.921 -341.14)" fill="none" stroke="#100d14" stroke-linecap="round" stroke-linejoin="round" stroke-width="0.98"/>
              </g>
              <line id="Line_54" data-name="Line 54" x1="52.215" y2="28.308" transform="translate(22.465 12.112)" fill="none" stroke="#100d14" stroke-linecap="round" stroke-linejoin="round" stroke-width="0.98"/>
            </g>
            <g id="Group_4516" data-name="Group 4516" transform="translate(32.082)">
              <line id="Line_55" data-name="Line 55" x1="25.912" y1="40.589" fill="none" stroke="#100d14" stroke-linecap="round" stroke-linejoin="round" stroke-width="0.98"/>
              <line id="Line_56" data-name="Line 56" x1="4.558" y2="9.046" transform="translate(25.912 31.543)" fill="none" stroke="#100d14" stroke-linecap="round" stroke-linejoin="round" stroke-width="0.98"/>
            </g>
          </g>
          <g id="Group_4518" data-name="Group 4518" transform="translate(17.218)">
            <path id="Path_4591" data-name="Path 4591" d="M603.6,280.383c3.359,3.206,6.679,5.886,9.82,7.218" transform="translate(-545.198 -258.212)" fill="none" stroke="#000" stroke-linecap="round" stroke-linejoin="round" stroke-width="0.98"/>
            <path id="Path_4592" data-name="Path 4592" d="M524.949,257.707c18.332-6.441,29.682-10.1,38.56-4.242,4.239,2.794,9.013,8.024,13.884,13.169" transform="translate(-524.949 -250.525)" fill="none" stroke="#000" stroke-linecap="round" stroke-linejoin="round" stroke-width="0.98"/>
          </g>
        </g>
        <g id="Group_4525" data-name="Group 4525">
          <path id="Path_4593" data-name="Path 4593" d="M376.726,203.9c-4.649,15.244-33.138,103.312-33.138,103.312l33.138,10.033,27.8-78.158s11.078-2.385,15.235-3.282c5.45-1.177,7.246-11.521-3.035-9.848l-10.281,1.672,4.088-16.35Z" transform="translate(-343.588 -192.894)" fill="#ffbaa2"/>
          <path id="Path_4594" data-name="Path 4594" d="M358.776,287.759l32.218,16.417-6.943,24.871-32.925-17.574,7.649-23.715" transform="translate(-345.529 -214.482)" fill="#c43c54"/>
          <path id="Path_4595" data-name="Path 4595" d="M444.882,190.4c6.131-4.273,11.983,2.761,5.481,7.7s-22.3,17.2-22.3,17.2l-6.039-9.011S439.914,193.862,444.882,190.4Z" transform="translate(-363.782 -189.078)" fill="#ffbaa2"/>
          <g id="Group_4520" data-name="Group 4520" transform="translate(32.518 8.057)">
            <path id="Path_4596" data-name="Path 4596" d="M396.039,200.619a5.663,5.663,0,0,1,2.732,7.671,6.02,6.02,0,0,1-8.04,2.258A5.664,5.664,0,0,1,388,202.877,6.019,6.019,0,0,1,396.039,200.619Z" transform="translate(-387.379 -199.928)" fill="#ffbaa2"/>
            <path id="Path_4597" data-name="Path 4597" d="M406.286,203.8a5.663,5.663,0,0,1,2.731,7.671,6.019,6.019,0,0,1-8.04,2.258,5.663,5.663,0,0,1-2.731-7.671A6.019,6.019,0,0,1,406.286,203.8Z" transform="translate(-390.017 -200.747)" fill="#e5987d"/>
            <rect id="Rectangle_1327" data-name="Rectangle 1327" width="8.254" height="11.232" transform="translate(7.669 0.292) rotate(17.238)" fill="#ffbaa2"/>
          </g>
          <g id="Group_4521" data-name="Group 4521" transform="translate(43.124 8.486)">
            <path id="Path_4598" data-name="Path 4598" d="M409.859,201.16a5.361,5.361,0,0,1,2.586,7.261,5.7,5.7,0,0,1-7.61,2.137,5.36,5.36,0,0,1-2.586-7.26A5.7,5.7,0,0,1,409.859,201.16Z" transform="translate(-401.662 -200.506)" fill="#ffbaa2"/>
            <path id="Path_4599" data-name="Path 4599" d="M419.557,204.17a5.361,5.361,0,0,1,2.586,7.261,5.7,5.7,0,0,1-7.611,2.137,5.361,5.361,0,0,1-2.586-7.261A5.7,5.7,0,0,1,419.557,204.17Z" transform="translate(-404.159 -201.281)" fill="#e5987d"/>
            <rect id="Rectangle_1328" data-name="Rectangle 1328" width="7.813" height="10.631" transform="translate(7.26 0.277) rotate(17.238)" fill="#ffbaa2"/>
          </g>
          <g id="Group_4522" data-name="Group 4522" transform="translate(58.72 12.575)">
            <path id="Path_4600" data-name="Path 4600" d="M423.609,214.387a119.424,119.424,0,0,1,5.958,10.526c2.4,4.973,11.378,1.134,7.957-7.712a29.946,29.946,0,0,0-5.924-9.565l-7.991,6.751" transform="translate(-422.909 -206.431)" fill="#ffbaa2"/>
            <path id="Path_4601" data-name="Path 4601" d="M432.607,208.7a5.32,5.32,0,1,1-7.256-1.984A5.319,5.319,0,0,1,432.607,208.7Z" transform="translate(-422.666 -206.013)" fill="#ffbaa2"/>
          </g>
          <path id="Path_4602" data-name="Path 4602" d="M423.609,216.728" transform="translate(-364.188 -196.196)" fill="none" stroke="#100d14" stroke-linecap="round" stroke-linejoin="round" stroke-width="0.98"/>
          <path id="Path_4603" data-name="Path 4603" d="M423.609,213.95a119.425,119.425,0,0,1,5.958,10.526c2.4,4.973,11.378,1.134,7.957-7.712A29.946,29.946,0,0,0,431.6,207.2c-1.654-1.79-5.342-1.591-6.812.059" transform="translate(-364.188 -193.418)" fill="none" stroke="#100d14" stroke-linecap="round" stroke-linejoin="round" stroke-width="0.98"/>
          <g id="Group_4523" data-name="Group 4523" transform="translate(51.238 11.148)">
            <path id="Path_4604" data-name="Path 4604" d="M412.642,210.452a116.762,116.762,0,0,1-.042,11.829c-.371,5.388,9.115,6.478,10.5-2.694a29.284,29.284,0,0,0-.4-11l-10.06,1.862" transform="translate(-412.59 -205.249)" fill="#ffbaa2"/>
            <path id="Path_4605" data-name="Path 4605" d="M423.065,209.293a5.2,5.2,0,1,1-5.2-5.2A5.2,5.2,0,0,1,423.065,209.293Z" transform="translate(-412.608 -204.091)" fill="#ffbaa2"/>
          </g>
          <path id="Path_4606" data-name="Path 4606" d="M420.868,205.624c2.132,2.691,2.656,7.379,2.116,12.405s-2.709,7.793-6.858,7.617-4.4-5.069-4.4-5.069" transform="translate(-361.13 -193.338)" fill="none" stroke="#100d14" stroke-linecap="round" stroke-linejoin="round" stroke-width="0.98"/>
          <g id="Group_4524" data-name="Group 4524" transform="translate(41.701 11.324)">
            <path id="Path_4607" data-name="Path 4607" d="M399.8,210.689a116.768,116.768,0,0,1-.042,11.829c-.371,5.388,9.115,6.478,10.5-2.694a29.285,29.285,0,0,0-.4-11l-10.06,1.862" transform="translate(-399.746 -205.486)" fill="#ffbaa2"/>
            <path id="Path_4608" data-name="Path 4608" d="M410.22,209.53a5.2,5.2,0,1,1-5.2-5.2A5.2,5.2,0,0,1,410.22,209.53Z" transform="translate(-399.764 -204.328)" fill="#ffbaa2"/>
          </g>
          <path id="Path_4609" data-name="Path 4609" d="M400.528,201.224s4.561,1.6,7.71,3.034,2.364,9.829,2.106,13.1-2.5,7.109-6.148,7.325-4.683-1.843-4.292-6.787a53.465,53.465,0,0,0-.088-9.161" transform="translate(-358.063 -192.205)" fill="none" stroke="#100d14" stroke-linecap="round" stroke-linejoin="round" stroke-width="0.98"/>
          <line id="Line_57" data-name="Line 57" x2="5.038" y2="1.568" transform="translate(36.859 19.076)" fill="none" stroke="#100d14" stroke-linecap="round" stroke-linejoin="round" stroke-width="0.98"/>
          <path id="Path_4610" data-name="Path 4610" d="M404.389,245.145a10.452,10.452,0,0,1,7.41-7.122" transform="translate(-359.241 -201.678)" fill="none" stroke="#100d14" stroke-linecap="round" stroke-linejoin="round" stroke-width="0.98"/>
          <line id="Line_58" data-name="Line 58" y1="3.654" x2="18.089" transform="translate(57.225 43.095)" fill="none" stroke="#100d14" stroke-linecap="round" stroke-linejoin="round" stroke-width="0.98"/>
        </g>
      </g>
    </g>
    <g id="Group_4529" data-name="Group 4529" transform="translate(304.681 271.358)">
      <g id="Group_4528" data-name="Group 4528" transform="translate(0)">
        <path id="Path_4611" data-name="Path 4611" d="M319.2,317.84H431.167a4.016,4.016,0,0,1,3.692,2.438l29.36,68.7a4.015,4.015,0,0,1-3.692,5.593H347.868a4.016,4.016,0,0,1-3.706-2.469l-28.67-68.7A4.016,4.016,0,0,1,319.2,317.84Z" transform="translate(-315.179 -317.84)" fill="#ff6782" stroke="#000" stroke-width="1"/>
        <rect id="Rectangle_1329" data-name="Rectangle 1329" width="81.658" height="12.355" transform="translate(140.099 64.379)" fill="#ff6782" stroke="#000" stroke-width="1"/>
        <path id="Path_4612" data-name="Path 4612" d="M469.948,404.538H348.654l5.156,12.355H475.228Z" transform="translate(-323.797 -340.159)" fill="#ffb1be"/>
      </g>
      <path id="Path_4613" data-name="Path 4613" d="M413.236,360.258c1.221,4.354-1.32,7.884-5.674,7.884s-8.874-3.529-10.094-7.884,1.32-7.885,5.674-7.885S412.015,355.9,413.236,360.258Z" transform="translate(-336.284 -326.73)"/>
    </g>
    <g id="Group_4531" data-name="Group 4531" transform="translate(325.358 353.094)">
      <g id="Group_4530" data-name="Group 4530" transform="translate(0 0)">
        <rect id="Rectangle_1330" data-name="Rectangle 1330" width="252.734" height="3.291" rx="1.645" fill="#c43c54"/>
        <rect id="Rectangle_1331" data-name="Rectangle 1331" width="99.213" height="3.291" rx="1.645" transform="translate(153.521)"/>
      </g>
    </g>
  </g>
</svg>
